<?xml version="1.0" encoding="utf-8"?>
<!-- Generator: Adobe Illustrator 23.0.6, SVG Export Plug-In . SVG Version: 6.00 Build 0)  -->
<svg version="1.1" xmlns="http://www.w3.org/2000/svg" xmlns:xlink="http://www.w3.org/1999/xlink" x="0px" y="0px"
	 viewBox="0 0 162 28" style="enable-background:new 0 0 162 28;" xml:space="preserve">
<style type="text/css">
	.st0{display:none;}
	.st1{display:inline;}
	.st2{fill:#00323E;}
	.st3{fill:#FFFFFF;}
</style>
<g id="IS" class="st0">
	<g id="_10bis" class="st1">
		<g id="TakeawayCOM_Full_Colour_1_">
			<path id="House_1_" class="st2" d="M13,0.3c0.5-0.4,1.2-0.4,1.8,0c1.4,0.9,2.7,1.8,4,2.8c0,0,0.3,0.2,0.4-0.2
				c0,0-0.1-1.2,0.1-1.6c0.1-0.3,0.4-0.5,0.7-0.5c0,0,1.6,0.1,2.5,0.2c0.4,0.1,0.8,0.4,0.8,0.9c0,0,0.6,4.2,0.8,5.7
				c0,0,0.1,0.8,1.2,2.1c0,0,2.3,3.2,2.5,3.8c0,0,0.5,1.1-0.6,1.2c0,0-2.1,0.2-2.3,0.2c-0.3,0-0.5,0.3-0.5,0.6c0,0,0,0,0,0v0
				c0,0-0.1,7.3-0.6,10.9c0,0-0.1,1.4-0.9,1.4c0,0-2.1-0.1-2.6-0.1c0,0-0.2,0-0.2-0.3c0,0,1.1-11.5,0.3-17.3c0,0,0-0.7-0.6-0.9
				c0,0-0.5-0.2-1,0.5c0,0-3.4,4.3-3.4,10.3c0,0-0.1,1.8,0.2,2.3c0,0,0.2,0.3,1.1,0.4l1.1,0.1c0,0,0.2,0,0.2,0.3c0,0-0.2,3.4-0.3,4
				c0,0.1,0,0.3-0.1,0.4c0,0,0,0.1-0.4,0.1c0,0-4.9,0-5.5,0c0,0-0.2,0-0.3-0.1c-0.1-0.1-0.3-4.3-0.3-4.9c0-0.1,0.1-0.2,0.2-0.3
				c0.8-0.5,1.3-1.3,1.4-2.2c0,0,0.1-0.3,0-1.9c0,0,0.2-6.4,0.2-7.5c0,0,0-0.3-0.4-0.4c-0.2,0-0.4,0.1-0.5,0.3v0
				c0,0-0.3,4.2-0.2,5.9c0,0,0.1,1.1-0.7,1.1c0,0-0.7,0.1-0.8-0.8c0,0,0.1-4.1,0.2-6.2c0-0.2-0.2-0.4-0.4-0.4
				c-0.2-0.1-0.5,0.1-0.5,0.3c0,0,0,0,0,0.1c0,0,0,0,0,0c0,0-0.3,4-0.2,6c0,0,0.1,1-0.7,1c0,0-0.7,0.1-0.7-0.8c0,0,0.2-5.7,0.2-6.1
				c0-0.3-0.1-0.5-0.4-0.5c0,0,0,0,0,0h0c-0.2,0-0.5,0.1-0.5,0.4c0,0,0,0,0,0c0,0,0,0,0,0c0,0-0.3,6.8-0.2,8.8c0,0,0,2,1.5,2.9
				c0,0,0.2,0.1,0.2,0.3c0,0,0.2,3.6,0.3,4.7c0,0,0.1,0.3-0.2,0.3L5,28c0,0-0.6,0-0.8-0.7c-0.1-0.7-0.8-6.7-0.7-11.5
				c0-0.3-0.2-0.6-0.5-0.6c0,0-1.9-0.2-2.4-0.3c-0.4-0.1-0.7-0.6-0.6-1c0-0.1,0-0.1,0.1-0.2C0.1,13.7,4.3,5.7,13,0.3z"/>
		</g>
		<path class="st2" d="M-32.6,21.2h-0.8v-5c0-3.9-2-5.5-6-5.5H-43c-0.3,0-0.6,0.3-0.6,0.6v2.2c0,0.3,0.3,0.6,0.6,0.6h3.2
			c1.9,0,2.6,0.7,2.6,2.5v4.7h-6.1c-0.5,0-0.9,0.4-0.9,0.9c0,0,0,0,0,0v1.5c0,0.5,0.4,0.9,0.9,0.9h10.5c0.6,0,1-0.5,1-1c0,0,0,0,0,0
			V22C-31.7,21.6-32.1,21.2-32.6,21.2z"/>
		<path class="st2" d="M-11.5,10.7h-8.3c-0.1,0-0.2,0.1-0.2,0.2v2.8c0,0.1,0.1,0.2,0.2,0.2h1.5v6.5c0,0.9-0.4,0.9-0.7,0.9h-1
			c-0.1,0-0.3,0.1-0.3,0.3v2.2c0,0.5,0.4,0.9,0.9,0.9l0,0h0.6c2.7,0,4.3-1.5,4.3-4.2V14h2.6c1.9,0,2,1.7,2,3.5v6.1
			c0,0.5,0.4,0.9,0.9,0.9h2c0.5,0,0.9-0.4,0.9-0.9v-7.3C-6.2,12.4-7.5,10.7-11.5,10.7z"/>
		<path class="st2" d="M-48.1,10.7C-48.1,10.7-48.1,10.7-48.1,10.7L-48.1,10.7h-1.8c-0.2,0-0.3,0.1-0.3,0.3l0,0v2.7
			c0,0.2,0.1,0.3,0.3,0.3c0,0,0,0,0,0h1v3.6c0,0.5,0.4,0.9,0.9,0.9c0,0,0,0,0,0h2c0.5,0,0.9-0.4,0.9-0.9c0,0,0,0,0,0v-3.9
			C-45.1,12-46.4,10.7-48.1,10.7L-48.1,10.7z"/>
		<path class="st2" d="M-24.6,10.7L-24.6,10.7L-24.6,10.7H-27c-0.2,0-0.3,0.1-0.3,0.3c0,0,0,0,0,0v2.8c0,0.2,0.1,0.3,0.3,0.3h1.5
			v13.7c0,0.5,0.4,0.9,0.9,1h1.9c0.5,0,1-0.4,1-1l0,0V13.5C-21.7,12-23,10.7-24.6,10.7z"/>
		<path class="st2" d="M-58,10.4h-5.2c-0.6,0-1.1,0.5-1.1,1c0,0,0,0,0,0v6.7c0,3.6,2.9,6.6,6.6,6.6l0,0c3.6,0,6.6-2.9,6.6-6.6
			c0,0,0,0,0,0v-0.9C-51.1,13.5-54.2,10.4-58,10.4L-58,10.4z M-54.6,18.4c0,1.7-1.4,3.1-3.1,3.1c-1.7,0-3.1-1.4-3.1-3.1v-4.7h2.8
			c1.9,0,3.4,1.5,3.4,3.4c0,0,0,0,0,0V18.4z"/>
	</g>
</g>
<g id="DE">
	<g id="LieferandoDE">
		<g id="LieferandoDE-2_1_">
			<g id="LieferandoDE_Full_Colour">
				<g id="LieferandoDE-2-2">
					<path class="st3" d="M56.7,15.4c-0.4-0.4-0.9-0.8-1.4-1C54.7,14.1,54,14,53.4,14c-0.7,0-1.4,0.1-2.1,0.4
						c-0.6,0.2-1.2,0.6-1.7,1c-0.5,0.4-0.9,1-1.1,1.6c-0.6,1.5-0.6,3.2,0,4.7c0.3,0.6,0.7,1.2,1.1,1.6c0.5,0.5,1.1,0.8,1.7,1
						c0.7,0.2,1.4,0.4,2.1,0.4c0.8,0,1.6-0.2,2.3-0.5c0.6-0.2,1.1-0.6,1.5-1c0.2-0.2,0.2-0.4,0-0.6l-1.4-1l0,0l-0.1-0.1
						c-0.2-0.1-0.4-0.1-0.5,0.1c-0.2,0.2-0.4,0.4-0.6,0.6c-0.4,0.2-0.8,0.3-1.2,0.3c-0.5,0-1.1-0.2-1.5-0.5
						c-0.5-0.5-0.7-1.1-0.8-1.7c0-0.1,0.1-0.2,0.2-0.2h6.3c0.2,0,0.4-0.2,0.4-0.5v-0.5c0-0.7-0.1-1.4-0.3-2.1
						C57.4,16.4,57.1,15.9,56.7,15.4 M54.7,18h-3.4c-0.1,0-0.2-0.1-0.2-0.2c0-0.2,0.1-0.3,0.1-0.5c0.1-0.2,0.2-0.4,0.4-0.6
						c0.4-0.4,1-0.6,1.5-0.6c0.5,0,1,0.2,1.3,0.5c0.3,0.3,0.5,0.7,0.5,1.1C54.9,17.9,54.8,18,54.7,18"/>
					<path class="st3" d="M64.7,14.3h-1.6c-0.1,0-0.2-0.1-0.2-0.2v-0.7c0-0.6,0.1-1.1,0.4-1.2c0.3-0.2,0.7-0.3,1.1-0.3h0.7
						c0.2,0,0.4-0.2,0.4-0.4V9.7c0-0.2-0.2-0.4-0.4-0.4h-1.3c-0.7,0-1.3,0.1-1.9,0.3c-0.5,0.2-0.8,0.5-1.1,0.8
						c-0.3,0.4-0.5,0.8-0.5,1.2c-0.1,0.5-0.1,1-0.1,1.5v0.9c0,0.1-0.1,0.2-0.2,0.2h-1.3c-0.2,0-0.4,0.2-0.4,0.4v1.5
						c0,0.2,0.2,0.4,0.4,0.4h1.3c0.1,0,0.2,0.1,0.2,0.2v7.2c0,0.2,0.2,0.4,0.4,0.5h2.1c0.2,0,0.4-0.2,0.4-0.4v-7.2
						c0-0.1,0.1-0.2,0.2-0.2h1.5c0.2,0,0.4-0.2,0.4-0.4v-1.5C65.2,14.5,65,14.3,64.7,14.3"/>
					<path class="st3" d="M45.6,9.5c-1,0-1.7,0.8-1.7,1.7c0,1,0.8,1.7,1.7,1.7c1,0,1.7-0.8,1.7-1.7c0-0.5-0.2-0.9-0.5-1.2
						C46.5,9.7,46,9.5,45.6,9.5"/>
					<path class="st3" d="M46.6,14.3h-2.1c-0.2,0-0.4,0.2-0.5,0.4v9.4c0,0.2,0.2,0.4,0.4,0.4h2.1c0.2,0,0.4-0.2,0.4-0.4v-9.4
						C47,14.5,46.8,14.3,46.6,14.3"/>
					<path class="st3" d="M82.4,14h-0.6c-0.6,0-1.2,0.1-1.7,0.4c-0.3,0.2-0.6,0.5-0.8,0.8l0,0l0,0.1l0,0c0,0,0,0,0,0
						c0,0-0.1,0.1-0.1,0.1c-0.1,0-0.1-0.1-0.2-0.1v-0.6c0-0.2-0.2-0.4-0.5-0.4h-2.1c-0.2,0-0.4,0.2-0.5,0.4v9.4
						c0,0.2,0.2,0.4,0.4,0.4h2.1c0.2,0,0.4-0.2,0.4-0.4v-4.2c0-0.4,0-0.9,0.1-1.3c0-0.4,0.2-0.7,0.3-1c0.2-0.3,0.5-0.5,0.8-0.7
						c0.3-0.1,0.7-0.2,1.1-0.2h1.1c0.2,0,0.4-0.2,0.4-0.4v-1.8C82.8,14.2,82.6,14,82.4,14"/>
					<path class="st3" d="M74,15.4c-0.4-0.4-0.9-0.8-1.4-1C72,14.1,71.3,14,70.7,14c-0.7,0-1.4,0.1-2.1,0.4c-0.6,0.2-1.2,0.6-1.7,1
						c-0.5,0.4-0.9,1-1.1,1.6c-0.6,1.5-0.6,3.2,0,4.7c0.3,0.6,0.7,1.2,1.1,1.6c0.5,0.5,1.1,0.8,1.7,1c0.7,0.2,1.4,0.4,2.1,0.4
						c0.8,0,1.6-0.2,2.3-0.5c0.6-0.2,1.1-0.6,1.5-1c0.2-0.2,0.2-0.4,0-0.6l-1.4-1l0,0L73,21.5c-0.2-0.1-0.4-0.1-0.5,0.1
						c-0.2,0.2-0.4,0.4-0.6,0.6c-0.4,0.2-0.8,0.3-1.2,0.3c-0.5,0-1.1-0.2-1.5-0.5c-0.5-0.5-0.7-1.1-0.8-1.7c0-0.1,0.1-0.2,0.2-0.2
						h6.3c0.2,0,0.4-0.2,0.4-0.5v-0.5c0-0.7-0.1-1.4-0.3-2.1C74.7,16.4,74.4,15.9,74,15.4 M72,18h-3.4c-0.1,0-0.2-0.1-0.2-0.2
						c0-0.2,0.1-0.3,0.1-0.5c0.1-0.2,0.2-0.4,0.4-0.6c0.2-0.2,0.4-0.3,0.6-0.4c0.3-0.1,0.6-0.2,0.9-0.2c0.5,0,1,0.2,1.3,0.5
						c0.3,0.3,0.5,0.7,0.5,1.1C72.2,17.9,72.1,18,72,18"/>
					<path class="st3" d="M42.5,21.7h-5.1c-0.1,0-0.2-0.1-0.2-0.2V10.9c0-0.2-0.2-0.4-0.4-0.5h-2.2c-0.2,0-0.4,0.2-0.4,0.5v13.2
						c0,0.3,0.2,0.5,0.5,0.5l0,0h7.9c0.2,0,0.4-0.2,0.5-0.4v-2C42.9,21.9,42.8,21.7,42.5,21.7"/>
					<path class="st3" d="M137.3,9.3h-0.6c-0.3,0-0.5,0.2-0.5,0.5l0,0v5.5c0,0.1-0.1,0.1-0.2,0.1c0,0,0,0,0,0c0,0-0.1,0-0.1,0
						c0,0,0,0,0,0v0l-0.1-0.1c-0.3-0.3-0.7-0.6-1.2-0.8c-0.6-0.3-1.2-0.4-1.9-0.4c-0.7,0-1.4,0.1-2,0.4c-0.6,0.2-1.1,0.6-1.6,1
						c-0.4,0.5-0.8,1-1,1.6c-0.5,1.5-0.5,3.2,0,4.7c0.2,0.6,0.6,1.1,1,1.6c0.4,0.4,0.9,0.8,1.5,1c0.6,0.3,1.2,0.4,1.8,0.4
						c0.8,0,1.5-0.2,2.2-0.6c0.4-0.2,0.8-0.5,1.1-0.9l0,0l0-0.1l0,0c0,0,0.1-0.1,0.1-0.1c0.1,0,0.2,0.1,0.2,0.1v0.7
						c0,0.3,0.2,0.5,0.5,0.5c0,0,0,0,0,0h0.7c0.3,0,0.5-0.2,0.5-0.5V9.8C137.8,9.5,137.6,9.3,137.3,9.3 M136,21.2
						c-0.3,0.8-0.9,1.5-1.7,1.8c-0.9,0.4-1.9,0.4-2.7,0c-0.8-0.4-1.4-1-1.7-1.8c-0.3-1.2-0.3-2.4,0-3.6c0.1-0.4,0.4-0.8,0.7-1.1
						c0.3-0.3,0.7-0.6,1.1-0.7c0.9-0.4,1.9-0.4,2.7,0c0.4,0.2,0.7,0.4,1,0.7c0.3,0.3,0.5,0.7,0.7,1.1C136.3,18.8,136.3,20,136,21.2"
						/>
					<path class="st3" d="M147.8,16.9c-0.2-0.6-0.5-1.1-0.9-1.6c-0.4-0.4-0.9-0.8-1.4-1c-0.6-0.2-1.2-0.3-1.8-0.3
						c-0.7,0-1.3,0.1-1.9,0.4c-0.6,0.2-1.1,0.6-1.5,1c-0.4,0.5-0.8,1-1,1.6c-0.2,0.7-0.4,1.5-0.4,2.3c0,0.8,0.1,1.6,0.3,2.4
						c0.2,0.6,0.5,1.1,0.9,1.6c0.4,0.5,0.9,0.8,1.5,1.1c0.6,0.3,1.3,0.4,2,0.4c0.8,0,1.6-0.1,2.3-0.4c0.6-0.3,1.1-0.7,1.6-1.2
						c0.1-0.2,0.1-0.4-0.1-0.6l-0.5-0.4c-0.2-0.1-0.4-0.1-0.6,0c-0.7,0.8-1.7,1.2-2.8,1.2c-0.4,0-0.8-0.1-1.2-0.2
						c-0.4-0.2-0.7-0.4-0.9-0.7c-0.3-0.3-0.5-0.6-0.7-1c-0.2-0.5-0.3-1-0.3-1.5c0-0.1,0.1-0.2,0.2-0.2h6.9c0.2,0,0.4-0.2,0.5-0.4
						v-0.1C148.1,18.4,148,17.7,147.8,16.9 M146.2,18.4h-5.5c-0.1,0-0.2-0.1-0.2-0.2c0.1-0.7,0.4-1.5,0.9-1.9
						c0.6-0.5,1.3-0.8,2.1-0.7c0.8,0,1.5,0.2,2.1,0.7c0.5,0.4,0.7,1.2,0.8,1.9C146.4,18.3,146.3,18.4,146.2,18.4"/>
					<path class="st3" d="M126.6,22.4c-0.3,0-0.6,0.1-0.8,0.3c-0.4,0.4-0.4,1.1,0.1,1.5c0.4,0.4,1.1,0.4,1.5,0l0,0
						c0.4-0.4,0.4-1.1,0-1.5C127.2,22.5,126.9,22.4,126.6,22.4"/>
					<path class="st3" d="M91,15.4c-0.4-0.4-0.8-0.8-1.4-1c-0.7-0.2-1.4-0.4-2.1-0.3c-0.8,0-1.6,0.1-2.3,0.4
						c-0.6,0.2-1.1,0.5-1.6,0.9c-0.2,0.2-0.2,0.5,0,0.6l0,0l0.9,0.9l0,0c0.2,0.2,0.5,0.2,0.6,0c0,0,0,0,0,0l0,0l0,0
						c0.2-0.2,0.5-0.4,0.7-0.5c0.4-0.2,0.9-0.3,1.3-0.3c0.5,0,1,0.2,1.3,0.5c0.3,0.3,0.5,0.8,0.6,1.6c0,0.1-0.1,0.2-0.2,0.2
						c-0.3,0-0.7,0-1.1,0c-0.5,0-1,0.1-1.4,0.1c-0.5,0.1-0.9,0.2-1.4,0.3c-0.4,0.1-0.8,0.3-1.2,0.6c-0.3,0.2-0.6,0.6-0.8,1
						c-0.2,0.4-0.3,0.9-0.3,1.4c0,0.4,0.1,0.9,0.3,1.3c0.2,0.4,0.4,0.7,0.7,0.9c0.3,0.3,0.7,0.4,1.1,0.6c0.4,0.1,0.9,0.2,1.3,0.2
						c0.6,0,1.2-0.1,1.7-0.3c0.4-0.2,0.8-0.5,1.1-0.8h0c0.1,0,0.1,0,0.2,0c0,0,0,0.1,0,0.1v0.3c0,0.2,0.2,0.4,0.4,0.4h1.9
						c0.2,0,0.4-0.2,0.4-0.4v-4.5c0-0.9-0.1-1.8-0.2-2.7C91.6,16.4,91.3,15.8,91,15.4 M89.2,20.9c0,0.5-0.2,1-0.7,1.3
						c-0.2,0.2-0.5,0.3-0.7,0.3c-0.3,0.1-0.6,0.1-0.8,0.1c-0.3,0-0.7-0.1-1-0.2c-0.3-0.1-0.5-0.4-0.5-0.8c0-0.3,0.1-0.6,0.3-0.8
						c0.2-0.2,0.5-0.3,0.8-0.4c0.3-0.1,0.6-0.2,1-0.2c0.3,0,0.6,0,0.8,0h0.5c0.1,0,0.2,0.1,0.2,0.2L89.2,20.9z"/>
					<path class="st3" d="M101.6,15.3c-0.3-0.4-0.6-0.8-1.1-1c-0.6-0.3-1.2-0.4-1.8-0.4c-0.3,0-0.7,0-1,0.1
						c-0.3,0.1-0.6,0.2-0.8,0.4c-0.2,0.1-0.4,0.3-0.6,0.5c-0.1,0.1-0.1,0.1-0.2,0.2c-0.1,0.1-0.2,0.1-0.2,0c0,0,0-0.1,0-0.1v-0.4
						c0-0.3-0.2-0.5-0.5-0.5h-2c-0.3,0-0.5,0.2-0.5,0.5c0,0,0,0,0,0l0,0v9.4c0,0.2,0.2,0.4,0.5,0.4h2.1c0.2,0,0.4-0.2,0.5-0.4v-5
						c0-0.3,0-0.6,0.1-0.9c0-0.3,0.1-0.5,0.2-0.8c0.1-0.2,0.3-0.4,0.5-0.6c0.3-0.1,0.6-0.2,0.9-0.2c0.6-0.1,1.2,0.3,1.4,0.9
						c0.1,0.3,0.2,0.5,0.2,0.8c0,0.3,0,0.6,0,0.9v4.9c0,0.2,0.2,0.4,0.5,0.4h2.1c0.2,0,0.4-0.2,0.5-0.4v-5.5c0-0.6,0-1.2-0.1-1.8
						C102.1,16.3,101.9,15.8,101.6,15.3"/>
					<path class="st3" d="M113.2,9.5h-2.1c-0.2,0-0.4,0.2-0.4,0.4v5c0,0.1-0.1,0.1-0.2,0.1c0,0-0.1,0-0.1-0.1l0,0l0,0c0,0,0,0,0,0
						l0,0c-0.3-0.3-0.6-0.5-1-0.6c-0.6-0.2-1.2-0.3-1.7-0.3c-0.6,0-1.3,0.1-1.8,0.4c-0.5,0.3-1,0.7-1.4,1.1c-0.4,0.5-0.7,1-0.9,1.6
						c-0.4,1.5-0.4,3,0,4.5c0.2,0.6,0.5,1.1,1,1.6c0.4,0.4,0.9,0.8,1.5,1c0.6,0.3,1.3,0.4,1.9,0.4c0.3,0,0.7,0,1-0.1
						c0.3-0.1,0.6-0.2,0.9-0.4c0.2-0.1,0.5-0.3,0.7-0.5l0.2-0.2l0-0.1c0,0,0.1,0,0.1,0c0.1,0,0.1,0.1,0.2,0.1v0.4
						c0,0.2,0.2,0.4,0.4,0.4h1.9c0.2,0,0.4-0.2,0.4-0.5V10l0,0C113.7,9.7,113.5,9.5,113.2,9.5 M110.3,21.5c-1,0.9-2.5,0.9-3.5,0
						c-0.4-0.4-0.6-1.4-0.6-2.1s0.2-1.6,0.6-2c1-0.9,2.5-0.9,3.5,0c0.4,0.5,0.6,1.3,0.6,2S110.7,21,110.3,21.5"/>
					<path class="st3" d="M123.5,15.6c-0.5-0.5-1.1-0.8-1.7-1c-1.4-0.5-2.8-0.5-4.2,0c-0.6,0.2-1.2,0.6-1.7,1
						c-0.5,0.4-0.9,1-1.1,1.6c-0.6,1.5-0.6,3.2,0,4.7c0.3,0.6,0.7,1.2,1.1,1.6c0.5,0.5,1.1,0.8,1.7,1c1.4,0.5,2.8,0.5,4.2,0
						c0.6-0.2,1.2-0.6,1.7-1c0.5-0.4,0.9-1,1.1-1.6c0.6-1.5,0.6-3.2,0-4.7C124.4,16.6,124,16.1,123.5,15.6 M121.5,21.7
						c-1,0.9-2.5,0.9-3.5,0c-0.4-0.4-0.6-1.3-0.6-2.1c0-0.7,0.2-1.6,0.6-2.1c1-0.9,2.5-0.9,3.5,0c0.4,0.4,0.6,1.3,0.6,2.1
						C122.1,20.3,121.9,21.2,121.5,21.7"/>
				</g>
			</g>
		</g>
		<g id="TakeawayCOM_Full_Colour_2_">
			<path id="House_2_" class="st3" d="M13,0.3c0.5-0.4,1.2-0.4,1.8,0c1.4,0.9,2.7,1.8,3.9,2.8c0,0,0.3,0.2,0.4-0.2
				c0,0-0.1-1.2,0.1-1.6c0.1-0.3,0.4-0.5,0.7-0.5c0,0,1.5,0.1,2.5,0.2c0.4,0.1,0.8,0.4,0.8,0.9c0,0,0.6,4.2,0.8,5.7
				c0,0,0.1,0.8,1.2,2.1c0,0,2.3,3.2,2.5,3.8c0,0,0.5,1.1-0.6,1.2c0,0-2.1,0.2-2.3,0.2c-0.3,0-0.5,0.3-0.5,0.6c0,0,0,0,0,0
				c0,0,0,0,0,0c0,0-0.1,7.3-0.6,10.9c0,0-0.1,1.4-0.9,1.4c0,0-2.1-0.1-2.6-0.1c0,0-0.2,0-0.2-0.3c0,0,1.1-11.5,0.3-17.2
				c0,0,0-0.7-0.6-0.9c0,0-0.5-0.2-1,0.5c0,0-3.4,4.3-3.4,10.3c0,0-0.1,1.8,0.2,2.3c0,0,0.2,0.3,1.1,0.4l1.1,0.2c0,0,0.2,0,0.2,0.3
				c0,0-0.2,3.4-0.3,4c0,0.1,0,0.3-0.1,0.4c0,0,0,0.1-0.4,0.1c0,0-4.9,0-5.5,0c0,0-0.2,0-0.3-0.1c-0.1-0.1-0.3-4.3-0.3-4.9
				c0-0.1,0.1-0.2,0.2-0.3c0.8-0.5,1.3-1.3,1.4-2.2c0,0,0.1-0.3,0-1.9c0,0,0.2-6.4,0.2-7.5c0,0,0-0.3-0.4-0.4
				c-0.2,0-0.4,0.1-0.5,0.3v0c0,0-0.3,4.2-0.2,5.9c0,0,0.1,1.1-0.7,1.1c0,0-0.7,0.1-0.8-0.8c0,0,0.1-4.1,0.2-6.2
				c0-0.2-0.2-0.4-0.5-0.4c-0.2,0-0.5,0.1-0.5,0.4c0,0,0,0,0,0c0,0-0.3,4-0.2,6c0,0,0.1,1-0.7,1c0,0-0.7,0.1-0.7-0.8
				c0,0,0.2-5.7,0.2-6.1c0-0.3-0.2-0.5-0.4-0.5c0,0,0,0,0,0h0c-0.2,0-0.5,0.1-0.5,0.4c0,0,0,0,0,0c0,0,0,0,0,0c0,0-0.3,6.8-0.2,8.8
				c0,0,0,2,1.5,2.9c0,0,0.2,0.1,0.2,0.3c0,0,0.2,3.6,0.3,4.7c0,0,0.1,0.3-0.2,0.3L5,28c0,0-0.6,0-0.8-0.7
				c-0.1-0.7-0.8-6.7-0.7-11.5c0-0.3-0.2-0.6-0.5-0.6c0,0-1.9-0.2-2.4-0.3c-0.4-0.1-0.7-0.6-0.6-1c0,0,0,0,0,0c0-0.1,0-0.1,0.1-0.2
				C0.1,13.7,4.3,5.7,13,0.3z"/>
		</g>
	</g>
</g>
<g id="AT" class="st0">
	<g id="LIeferserviceAT" class="st1">
		<g id="TakeawayCOM_Full_Colour_3_">
			<path id="House_3_" class="st3" d="M13,0.3c0.5-0.4,1.2-0.4,1.8,0c1.4,0.9,2.7,1.8,3.9,2.8c0,0,0.3,0.2,0.4-0.2
				c0,0-0.1-1.2,0.1-1.6C19.3,1.2,19.6,1,19.9,1c0,0,1.6,0.1,2.5,0.2c0.4,0.1,0.8,0.4,0.8,0.9c0,0,0.6,4.2,0.8,5.7
				c0,0,0.1,0.8,1.2,2.1c0,0,2.3,3.2,2.5,3.8c0,0,0.5,1.1-0.6,1.2c0,0-2.1,0.2-2.3,0.2c-0.3,0-0.5,0.3-0.5,0.6c0,0,0,0,0,0
				c0,0-0.1,7.3-0.6,10.9c0,0-0.1,1.4-0.9,1.4c0,0-2.1-0.1-2.6-0.1c0,0-0.2,0-0.2-0.3c0,0,1.1-11.5,0.3-17.3c0,0,0-0.7-0.6-0.9
				c0,0-0.5-0.2-1,0.5c0,0-3.4,4.3-3.4,10.3c0,0-0.1,1.8,0.2,2.3c0,0,0.2,0.3,1.1,0.4l1.1,0.1c0,0,0.2,0,0.2,0.3c0,0-0.2,3.4-0.3,4
				c0,0.1,0,0.3-0.1,0.4c0,0,0,0.1-0.4,0.1c0,0-4.9,0-5.5,0c0,0-0.2,0-0.3-0.1c-0.1-0.1-0.3-4.3-0.3-4.9c0-0.1,0.1-0.2,0.2-0.3
				c0.8-0.5,1.3-1.3,1.4-2.2c0,0,0.1-0.3,0-1.9c0,0,0.2-6.4,0.2-7.5c0,0,0-0.3-0.4-0.4c-0.2,0-0.4,0.1-0.5,0.3c0,0,0,0,0,0
				c0,0-0.3,4.2-0.2,5.9c0,0,0.1,1.1-0.7,1.1c0,0-0.7,0.1-0.8-0.8c0,0,0.1-4.1,0.2-6.2c0-0.2-0.2-0.4-0.4-0.4
				c-0.2,0-0.5,0.1-0.5,0.4c0,0,0,0,0,0c0,0-0.3,4-0.2,6c0,0,0.1,1-0.7,1c0,0-0.7,0.1-0.7-0.8c0,0,0.2-5.7,0.2-6.1
				c0-0.3-0.2-0.5-0.4-0.5c0,0,0,0,0,0h0c-0.2,0-0.5,0.1-0.5,0.4c0,0,0,0,0,0c0,0,0,0,0,0c0,0-0.3,6.8-0.2,8.8c0,0,0,2,1.5,2.9
				c0,0,0.2,0.1,0.2,0.3c0,0,0.2,3.6,0.3,4.7c0,0,0.1,0.3-0.2,0.3L5,28c0,0-0.6,0-0.8-0.7c-0.1-0.7-0.8-6.7-0.7-11.5
				c0-0.3-0.2-0.6-0.5-0.6c0,0-1.9-0.2-2.4-0.3c-0.4-0.1-0.7-0.5-0.6-1c0,0,0,0,0,0c0-0.1,0-0.1,0.1-0.2C0.1,13.7,4.3,5.7,13,0.3z"
				/>
		</g>
		<g id="LIeferserviceAT-2">
			<g id="LieferserviceAT_Full_Colour">
				<g id="LieferserviceAT-2-2">
					<path class="st3" d="M151.5,14.2c-0.7,0-1.4,0.1-2,0.4c-0.5,0.2-1,0.5-1.4,0.8c-0.1,0.2-0.1,0.4,0,0.6l0,0l0.4,0.4
						c0.2,0.1,0.4,0.2,0.5,0.1l0.1,0l0,0l0,0c0.3-0.2,0.6-0.4,0.9-0.5c0.5-0.2,1-0.3,1.5-0.2c0.6,0,1.2,0.1,1.7,0.5
						c0.4,0.4,0.7,1,0.6,1.5v0.4c0,0.1-0.1,0.2-0.2,0.2h-0.4c-0.6,0-1.2,0-1.9,0.1c-0.7,0-1.3,0.2-1.9,0.4c-0.6,0.2-1.1,0.5-1.5,1
						c-0.4,0.4-0.6,1.3-0.6,2.1c0,0.5,0.1,1,0.3,1.4c0.2,0.3,0.4,0.6,0.7,0.9c0.3,0.2,0.7,0.4,1.1,0.5c0.4,0.1,0.9,0.2,1.4,0.2
						c0.6,0,1.3-0.1,1.9-0.5c0.3-0.2,0.6-0.5,0.9-0.7l0,0l0.1-0.1l0,0c0.1-0.1,0.2-0.1,0.2,0c0,0,0,0,0,0c0,0,0.1,0.1,0.1,0.1v0.5
						c0,0.2,0.2,0.4,0.4,0.4h0.6c0.2,0,0.4-0.2,0.4-0.4v-5.7c0-1.3-0.3-2.7-0.9-3.3S152.9,14.2,151.5,14.2 M153.9,20.2
						c0,0.4-0.1,0.9-0.2,1.3c-0.1,0.4-0.3,0.8-0.5,1.1c-0.2,0.3-0.5,0.5-0.9,0.6c-0.4,0.2-0.8,0.2-1.2,0.2c-0.5,0-1-0.1-1.5-0.4
						c-0.4-0.2-0.6-0.9-0.6-1.5c0-0.6,0.3-1.3,0.9-1.6c0.8-0.3,1.6-0.5,2.4-0.4h1.3c0.1,0,0.2,0.1,0.2,0.2L153.9,20.2z"/>
					<path class="st3" d="M161.6,23.4h-1.2c-0.2,0-0.4-0.1-0.6-0.2c-0.2-0.1-0.3-0.3-0.4-0.5c-0.1-0.2-0.2-0.4-0.2-0.7
						c0-0.2,0-0.5,0-0.9v-5.3c0-0.1,0.1-0.2,0.2-0.2h2.2c0.2,0,0.4-0.2,0.4-0.4v-0.5c0-0.2-0.2-0.4-0.5-0.4h-2.1
						c-0.1,0-0.2-0.1-0.2-0.2V13c0-0.3-0.2-0.5-0.5-0.5h0h-0.7c-0.3,0-0.5,0.2-0.5,0.5c0,0,0,0,0,0l0,0v1.2c0,0.1-0.1,0.2-0.2,0.2
						H156c-0.2,0-0.4,0.2-0.5,0.4v0.4c0,0.2,0.2,0.4,0.4,0.4h1.4c0.1,0,0.2,0.1,0.2,0.2v5.8c0,0.4,0,0.9,0.1,1.3
						c0,0.4,0.2,0.7,0.4,1c0.2,0.3,0.5,0.5,0.8,0.6c0.4,0.2,0.9,0.2,1.3,0.2h1.4c0.2,0,0.4-0.2,0.4-0.4v-0.6
						C162,23.6,161.8,23.4,161.6,23.4"/>
					<path class="st3" d="M145.5,22.5c-0.3,0-0.6,0.1-0.8,0.3c-0.4,0.4-0.4,1.1,0,1.5c0.4,0.4,1.1,0.4,1.5,0l0,0
						c0.4-0.4,0.4-1.1,0-1.5C146.1,22.6,145.8,22.5,145.5,22.5"/>
					<path class="st3" d="M120.3,14.4h-1.7c-0.4,0-0.7,0.2-0.8,0.6l0,0l0,0l0,0l-0.1,0.2l-1.8,5.2c0,0.1-0.1,0.2-0.1,0.2
						c-0.1,0-0.2-0.1-0.2-0.1l0-0.1l-2.1-5.5l0,0c-0.1-0.3-0.5-0.6-0.8-0.6h-1.9c-0.2,0-0.5,0.2-0.5,0.4c0,0.1,0,0.1,0,0.1l3.5,9.1
						c0.1,0.3,0.4,0.6,0.8,0.6h2c0.4,0,0.7-0.2,0.8-0.6l0,0l3.4-9.1c0,0,0-0.1,0-0.1C120.7,14.6,120.5,14.4,120.3,14.4"/>
					<path class="st3" d="M56.7,15.5c-0.4-0.4-0.9-0.8-1.4-1c-0.6-0.2-1.2-0.4-1.9-0.4c-0.7,0-1.4,0.1-2.1,0.4
						c-0.6,0.2-1.2,0.6-1.7,1c-0.5,0.4-0.9,1-1.1,1.6c-0.6,1.5-0.6,3.2,0,4.7c0.3,0.6,0.7,1.1,1.1,1.6c0.5,0.5,1.1,0.8,1.7,1
						c0.7,0.2,1.4,0.4,2.1,0.4c0.8,0,1.6-0.2,2.3-0.5c0.6-0.2,1.1-0.6,1.5-1c0.2-0.2,0.2-0.4,0-0.6l-1.4-1l0,0l-0.1-0.1
						c-0.2-0.1-0.4-0.1-0.5,0.1c-0.2,0.2-0.4,0.4-0.6,0.5c-0.4,0.2-0.8,0.3-1.2,0.3c-0.5,0-1.1-0.2-1.5-0.5
						c-0.5-0.5-0.7-1.1-0.8-1.7c0-0.1,0.1-0.2,0.2-0.2h6.3c0.2,0,0.4-0.2,0.4-0.5v-0.5c0-0.7-0.1-1.4-0.3-2.1
						C57.4,16.5,57.1,16,56.7,15.5 M54.7,18.1h-3.5c-0.1,0-0.2-0.1-0.2-0.2c0-0.2,0.1-0.3,0.1-0.5c0.1-0.2,0.2-0.4,0.4-0.6
						c0.2-0.2,0.4-0.3,0.6-0.4c0.3-0.1,0.6-0.2,0.9-0.2c0.5,0,1,0.2,1.3,0.5c0.3,0.3,0.5,0.7,0.5,1.1C54.9,18,54.8,18.1,54.7,18.1"
						/>
					<path class="st3" d="M132.5,21.8c-0.2-0.2-0.4-0.2-0.6,0l0,0c-0.1,0.1-0.2,0.1-0.3,0.2c-0.3,0.2-0.6,0.2-0.9,0.2
						c-0.7,0-1.3-0.2-1.7-0.7c-0.4-0.5-0.6-1.3-0.6-2.1c0-0.7,0.2-1.6,0.6-2.1c0.5-0.5,1.1-0.7,1.7-0.7c0.3,0,0.6,0.1,0.9,0.2
						c0.1,0.1,0.2,0.1,0.3,0.2l0,0c0.2,0.2,0.4,0.2,0.6,0l1.3-1.4l0,0c0.2-0.2,0.2-0.5,0-0.6c-0.4-0.3-0.8-0.6-1.3-0.7
						c-0.6-0.2-1.2-0.3-1.8-0.3c-0.7,0-1.4,0.1-2.1,0.4c-0.6,0.2-1.2,0.6-1.7,1c-0.5,0.4-0.9,1-1.1,1.6c-0.6,1.5-0.6,3.2,0,4.7
						c0.3,0.6,0.7,1.1,1.1,1.6c0.5,0.5,1.1,0.8,1.7,1c0.7,0.2,1.4,0.4,2.1,0.4c0.6,0,1.2-0.1,1.8-0.3c0.5-0.1,0.9-0.4,1.3-0.7
						c0.2-0.2,0.2-0.4,0-0.6L132.5,21.8z"/>
					<path class="st3" d="M64.7,14.4h-1.5c-0.1,0-0.2-0.1-0.2-0.2v-0.7c0-0.6,0.1-1.1,0.4-1.3c0.3-0.2,0.7-0.3,1.1-0.3h0.7
						c0.2,0,0.4-0.2,0.4-0.4V9.8c0-0.2-0.2-0.4-0.5-0.4h-1.3c-0.7,0-1.3,0.1-2,0.3c-0.5,0.2-0.8,0.5-1.1,0.8
						c-0.3,0.4-0.4,0.8-0.5,1.2c-0.1,0.5-0.1,1-0.1,1.5v0.9c0,0.1-0.1,0.2-0.2,0.2h-1.3c-0.2,0-0.4,0.2-0.4,0.4v1.5
						c0,0.2,0.2,0.4,0.4,0.4h1.3c0.1,0,0.2,0.1,0.2,0.2v7.2c0,0.2,0.2,0.4,0.4,0.5h2.1c0.2,0,0.4-0.2,0.4-0.4v-7.2
						c0-0.1,0.1-0.2,0.2-0.2h1.5c0.2,0,0.4-0.2,0.4-0.4v-1.5C65.2,14.6,65,14.4,64.7,14.4"/>
					<path class="st3" d="M45.6,9.6c-1,0-1.7,0.8-1.7,1.7s0.8,1.7,1.7,1.7c1,0,1.7-0.8,1.7-1.7c0-0.5-0.2-0.9-0.5-1.2
						C46.5,9.8,46,9.6,45.6,9.6"/>
					<path class="st3" d="M46.6,14.4h-2.1c-0.2,0-0.4,0.2-0.5,0.4v9.4c0,0.2,0.2,0.4,0.4,0.4h2.1c0.2,0,0.4-0.2,0.4-0.4v-9.4
						C47,14.6,46.8,14.4,46.6,14.4"/>
					<path class="st3" d="M82.4,14.1h-0.6c-0.6,0-1.2,0.1-1.6,0.4c-0.3,0.2-0.6,0.5-0.8,0.8l0,0c0,0,0,0,0,0.1l0,0l0,0.1
						c0,0-0.1,0.1-0.1,0.1c-0.1,0-0.1-0.1-0.2-0.1v-0.6c0-0.2-0.2-0.4-0.5-0.4h-2.1c-0.2,0-0.4,0.2-0.4,0.4v9.4
						c0,0.2,0.2,0.4,0.4,0.4h2.1c0.2,0,0.4-0.2,0.4-0.5V20c0-0.4,0-0.9,0.1-1.3c0-0.4,0.2-0.7,0.3-1c0.2-0.3,0.5-0.5,0.8-0.7
						c0.3-0.1,0.7-0.2,1.1-0.2h1.1c0.2,0,0.4-0.2,0.4-0.4v-1.8C82.8,14.3,82.6,14.2,82.4,14.1"/>
					<path class="st3" d="M90.1,19c-0.4-0.2-0.8-0.4-1.2-0.5l-1.2-0.3c-0.3-0.1-0.6-0.2-0.9-0.3c-0.2-0.1-0.4-0.3-0.4-0.6
						c0-0.3,0.1-0.5,0.4-0.6c0.2-0.1,0.5-0.2,0.7-0.2c0.5,0,1,0.2,1.4,0.5c0.2,0.2,0.4,0.2,0.6,0l1.2-1.3c0.1-0.2,0.1-0.4,0-0.6
						c-0.4-0.4-0.9-0.6-1.4-0.8c-0.6-0.2-1.3-0.3-1.9-0.3c-0.5,0-1,0.1-1.5,0.2c-0.5,0.1-0.9,0.3-1.3,0.6c-0.4,0.3-0.7,0.6-0.9,1.1
						c-0.2,0.5-0.4,1-0.3,1.6c0,0.5,0.1,1.1,0.4,1.5c0.2,0.4,0.5,0.7,0.9,0.9c0.4,0.2,0.8,0.4,1.2,0.5l1.2,0.3
						c0.3,0.1,0.6,0.2,0.9,0.3c0.2,0.1,0.4,0.3,0.4,0.6c0,0.3-0.2,0.5-0.4,0.6c-0.3,0.1-0.6,0.2-0.9,0.2c-0.4,0-0.8-0.1-1.2-0.3
						c-0.2-0.1-0.4-0.3-0.6-0.5c-0.2-0.1-0.4-0.1-0.6,0l-1.2,1.4c-0.1,0.2-0.1,0.5,0.1,0.6l0,0c0.4,0.4,0.9,0.6,1.4,0.8
						c0.7,0.2,1.3,0.3,2,0.3c0.5,0,1-0.1,1.6-0.2c0.5-0.1,1-0.3,1.4-0.5c0.4-0.3,0.8-0.6,1-1c0.3-0.5,0.4-1.1,0.4-1.6
						c0-0.5-0.1-1.1-0.4-1.5C90.8,19.6,90.4,19.2,90.1,19"/>
					<path class="st3" d="M74,15.5c-0.4-0.4-0.9-0.8-1.4-1c-0.6-0.2-1.2-0.4-1.9-0.4c-0.7,0-1.4,0.1-2.1,0.4c-0.6,0.2-1.2,0.6-1.7,1
						c-0.5,0.4-0.9,1-1.1,1.6c-0.6,1.5-0.6,3.2,0,4.7c0.3,0.6,0.7,1.2,1.1,1.6c0.5,0.5,1.1,0.8,1.7,1c0.7,0.2,1.4,0.4,2.1,0.4
						c0.8,0,1.6-0.2,2.3-0.5c0.6-0.2,1.1-0.6,1.5-1c0.2-0.2,0.2-0.4,0-0.6l-1.4-1l0,0L73,21.7c-0.2-0.1-0.4-0.1-0.5,0.1
						c-0.2,0.2-0.4,0.4-0.6,0.5c-0.4,0.2-0.8,0.3-1.2,0.3c-0.5,0-1.1-0.2-1.5-0.5c-0.5-0.5-0.7-1.1-0.8-1.7c0-0.1,0.1-0.2,0.2-0.2
						h6.3c0.2,0,0.4-0.2,0.4-0.5v-0.5c0-0.7-0.1-1.4-0.3-2.1C74.7,16.5,74.4,16,74,15.5 M72,18.1h-3.5c-0.1,0-0.2-0.1-0.2-0.2
						c0-0.2,0.1-0.3,0.1-0.5c0.1-0.2,0.2-0.4,0.4-0.6c0.2-0.2,0.4-0.3,0.6-0.4c0.3-0.1,0.6-0.2,0.9-0.2c0.5,0,1,0.2,1.3,0.5
						c0.3,0.3,0.5,0.7,0.5,1.1C72.2,18,72.1,18.1,72,18.1"/>
					<path class="st3" d="M100.6,15.5c-0.4-0.4-0.9-0.8-1.4-1c-0.6-0.2-1.2-0.4-1.9-0.4c-0.7,0-1.4,0.1-2.1,0.4
						c-0.6,0.2-1.2,0.6-1.7,1c-0.5,0.4-0.9,1-1.1,1.6c-0.6,1.5-0.6,3.2,0,4.7c0.3,0.6,0.7,1.2,1.1,1.6c0.5,0.5,1.1,0.8,1.7,1
						c0.7,0.2,1.4,0.4,2.1,0.4c0.8,0,1.6-0.2,2.3-0.5c0.6-0.2,1.1-0.6,1.5-1c0.2-0.2,0.2-0.4,0-0.6l-1.4-1l0,0l-0.1-0.1
						c-0.2-0.1-0.4-0.1-0.5,0.1c-0.2,0.2-0.4,0.4-0.6,0.5c-0.4,0.2-0.8,0.3-1.2,0.3c-0.5,0-1.1-0.2-1.5-0.5
						c-0.5-0.5-0.7-1.1-0.8-1.7c0-0.1,0.1-0.2,0.2-0.2h6.3c0.2,0,0.4-0.2,0.4-0.5v-0.5c0-0.7-0.1-1.4-0.3-2.1
						C101.3,16.5,101,16,100.6,15.5 M98.6,18.1h-3.4c-0.1,0-0.2-0.1-0.2-0.2c0-0.2,0.1-0.3,0.1-0.5c0.1-0.2,0.2-0.4,0.4-0.6
						c0.4-0.4,1-0.6,1.5-0.6c0.5,0,1,0.2,1.3,0.5c0.3,0.3,0.5,0.7,0.5,1.1C98.8,18,98.7,18.1,98.6,18.1"/>
					<path class="st3" d="M109.3,14.1h-0.6c-0.6,0-1.2,0.1-1.6,0.4c-0.3,0.2-0.6,0.5-0.8,0.8l0,0c0,0,0,0,0,0.1l0,0l0,0
						c0,0-0.1,0.1-0.1,0.1c-0.1,0-0.1-0.1-0.2-0.1v-0.6c0-0.2-0.2-0.4-0.5-0.4h-2.1c-0.2,0-0.4,0.2-0.4,0.4v9.4
						c0,0.2,0.2,0.4,0.4,0.4h2.1c0.2,0,0.4-0.2,0.4-0.5V20c0-0.4,0-0.9,0.1-1.3c0-0.4,0.2-0.7,0.3-1c0.2-0.3,0.5-0.5,0.8-0.7
						c0.3-0.1,0.7-0.2,1.1-0.2h1.1c0.2,0,0.4-0.2,0.4-0.4v-1.8C109.7,14.3,109.5,14.2,109.3,14.1"/>
					<path class="st3" d="M123,9.6c-1,0-1.7,0.8-1.7,1.7c0,1,0.8,1.7,1.7,1.7c1,0,1.7-0.8,1.7-1.7c0-0.5-0.2-0.9-0.5-1.2
						C123.9,9.8,123.4,9.6,123,9.6"/>
					<path class="st3" d="M124,14.4h-2.1c-0.2,0-0.4,0.2-0.5,0.4v9.4c0,0.2,0.2,0.4,0.4,0.4h2.1c0.2,0,0.4-0.2,0.4-0.4v-9.4
						C124.4,14.6,124.2,14.4,124,14.4"/>
					<path class="st3" d="M142.8,15.5c-0.4-0.4-0.9-0.8-1.4-1c-0.6-0.2-1.2-0.4-1.9-0.4c-0.7,0-1.4,0.1-2.1,0.4
						c-0.6,0.2-1.2,0.6-1.7,1c-0.5,0.4-0.9,1-1.1,1.6c-0.6,1.5-0.6,3.2,0,4.7c0.3,0.6,0.7,1.2,1.1,1.6c0.5,0.5,1.1,0.8,1.7,1
						c0.7,0.2,1.4,0.4,2.1,0.4c0.8,0,1.6-0.2,2.3-0.5c0.6-0.2,1.1-0.6,1.5-1c0.2-0.2,0.2-0.4,0-0.6l-1.4-1l0,0l-0.1-0.1
						c-0.2-0.1-0.4-0.1-0.5,0.1l0,0c-0.2,0.2-0.4,0.4-0.6,0.5c-0.4,0.2-0.8,0.3-1.2,0.3c-0.5,0-1.1-0.2-1.5-0.5
						c-0.5-0.5-0.7-1.1-0.8-1.7c0-0.1,0.1-0.2,0.2-0.2h6.3c0.2,0,0.4-0.2,0.4-0.5v-0.5c0-0.7-0.1-1.4-0.3-2.1
						C143.5,16.5,143.2,16,142.8,15.5 M140.8,18.1h-3.4c-0.1,0-0.2-0.1-0.2-0.2c0-0.2,0.1-0.3,0.1-0.5c0.1-0.2,0.2-0.4,0.4-0.6
						c0.4-0.4,1-0.6,1.5-0.6c0.5,0,1,0.2,1.3,0.5c0.3,0.3,0.5,0.7,0.5,1.1C141,18,140.9,18.1,140.8,18.1"/>
					<path class="st3" d="M42.5,21.7h-5.1c-0.1,0-0.2-0.1-0.2-0.2V11c0-0.2-0.2-0.4-0.4-0.4h-2.2c-0.2,0-0.4,0.2-0.4,0.5v13.2
						c0,0.3,0.2,0.5,0.5,0.5l0,0h7.9c0.2,0,0.4-0.2,0.5-0.4v-2C43,21.9,42.8,21.8,42.5,21.7"/>
				</g>
			</g>
		</g>
	</g>
</g>
<g id="ATDE" class="st0">
	<g id="LieferandoAT" class="st1">
		<g id="LieferandoAT-2">
			<g id="LieferandoDE-2">
				<path class="st3" d="M56.7,15.4c-0.4-0.4-0.9-0.8-1.4-1C54.7,14.1,54,14,53.4,14c-0.7,0-1.4,0.1-2.1,0.4c-0.6,0.2-1.2,0.6-1.7,1
					c-0.5,0.4-0.9,1-1.1,1.6c-0.6,1.5-0.6,3.2,0,4.7c0.3,0.6,0.7,1.2,1.1,1.6c0.5,0.5,1.1,0.8,1.7,1c0.7,0.2,1.4,0.4,2.1,0.4
					c0.8,0,1.6-0.2,2.3-0.5c0.6-0.2,1.1-0.6,1.5-1c0.2-0.2,0.2-0.4,0-0.6l-1.4-1l0,0l-0.1-0.1c-0.2-0.1-0.4-0.1-0.5,0.1
					c-0.2,0.2-0.4,0.4-0.6,0.6c-0.4,0.2-0.8,0.3-1.2,0.3c-0.5,0-1.1-0.2-1.5-0.5c-0.5-0.5-0.7-1.1-0.8-1.7c0-0.1,0.1-0.2,0.2-0.2
					h6.3c0.2,0,0.4-0.2,0.4-0.5v-0.5c0-0.7-0.1-1.4-0.3-2.1C57.4,16.4,57.1,15.9,56.7,15.4 M54.7,18h-3.4c-0.1,0-0.2-0.1-0.2-0.2
					c0-0.2,0.1-0.3,0.1-0.5c0.1-0.2,0.2-0.4,0.4-0.6c0.4-0.4,1-0.6,1.5-0.6c0.5,0,1,0.2,1.3,0.5c0.3,0.3,0.5,0.7,0.5,1.1
					C54.9,17.9,54.8,18,54.7,18"/>
				<path class="st3" d="M64.7,14.3h-1.6c-0.1,0-0.2-0.1-0.2-0.2v-0.7c0-0.6,0.1-1.1,0.4-1.2c0.3-0.2,0.7-0.3,1.1-0.3h0.7
					c0.2,0,0.4-0.2,0.4-0.4V9.7c0-0.2-0.2-0.4-0.4-0.4h-1.3c-0.7,0-1.3,0.1-1.9,0.3c-0.5,0.2-0.8,0.5-1.1,0.8
					c-0.3,0.4-0.5,0.8-0.5,1.2c-0.1,0.5-0.1,1-0.1,1.5v0.9c0,0.1-0.1,0.2-0.2,0.2h-1.3c-0.2,0-0.4,0.2-0.4,0.4v1.5
					c0,0.2,0.2,0.4,0.4,0.4h1.3c0.1,0,0.2,0.1,0.2,0.2v7.2c0,0.2,0.2,0.4,0.4,0.5h2.1c0.2,0,0.4-0.2,0.4-0.4v-7.2
					c0-0.1,0.1-0.2,0.2-0.2h1.5c0.2,0,0.4-0.2,0.4-0.4v-1.5C65.2,14.5,65,14.3,64.7,14.3"/>
				<path class="st3" d="M45.6,9.5c-1,0-1.7,0.8-1.7,1.7c0,1,0.8,1.7,1.7,1.7c1,0,1.7-0.8,1.7-1.7c0-0.5-0.2-0.9-0.5-1.2
					C46.5,9.7,46,9.5,45.6,9.5"/>
				<path class="st3" d="M46.6,14.3h-2.1c-0.2,0-0.4,0.2-0.5,0.4v9.4c0,0.2,0.2,0.4,0.4,0.4h2.1c0.2,0,0.4-0.2,0.4-0.4v-9.4
					C47,14.5,46.8,14.3,46.6,14.3"/>
				<path class="st3" d="M82.4,14h-0.6c-0.6,0-1.2,0.1-1.7,0.4c-0.3,0.2-0.6,0.5-0.8,0.8l0,0l0,0.1l0,0c0,0,0,0,0,0
					c0,0-0.1,0.1-0.1,0.1c-0.1,0-0.1-0.1-0.2-0.1v-0.6c0-0.2-0.2-0.4-0.5-0.4h-2.1c-0.2,0-0.4,0.2-0.5,0.4v9.4
					c0,0.2,0.2,0.4,0.4,0.4h2.1c0.2,0,0.4-0.2,0.4-0.4v-4.2c0-0.4,0-0.9,0.1-1.3c0-0.4,0.2-0.7,0.3-1c0.2-0.3,0.5-0.5,0.8-0.7
					c0.3-0.1,0.7-0.2,1.1-0.2h1.1c0.2,0,0.4-0.2,0.4-0.4v-1.8C82.8,14.2,82.6,14,82.4,14"/>
				<path class="st3" d="M74,15.4c-0.4-0.4-0.9-0.8-1.4-1C72,14.1,71.3,14,70.7,14c-0.7,0-1.4,0.1-2.1,0.4c-0.6,0.2-1.2,0.6-1.7,1
					c-0.5,0.4-0.9,1-1.1,1.6c-0.6,1.5-0.6,3.2,0,4.7c0.3,0.6,0.7,1.2,1.1,1.6c0.5,0.5,1.1,0.8,1.7,1c0.7,0.2,1.4,0.4,2.1,0.4
					c0.8,0,1.6-0.2,2.3-0.5c0.6-0.2,1.1-0.6,1.5-1c0.2-0.2,0.2-0.4,0-0.6l-1.4-1l0,0L73,21.5c-0.2-0.1-0.4-0.1-0.5,0.1
					c-0.2,0.2-0.4,0.4-0.6,0.6c-0.4,0.2-0.8,0.3-1.2,0.3c-0.5,0-1.1-0.2-1.5-0.5c-0.5-0.5-0.7-1.1-0.8-1.7c0-0.1,0.1-0.2,0.2-0.2
					h6.3c0.2,0,0.4-0.2,0.4-0.5v-0.5c0-0.7-0.1-1.4-0.3-2.1C74.7,16.4,74.4,15.9,74,15.4 M72,18h-3.4c-0.1,0-0.2-0.1-0.2-0.2
					c0-0.2,0.1-0.3,0.1-0.5c0.1-0.2,0.2-0.4,0.4-0.6c0.2-0.2,0.4-0.3,0.6-0.4c0.3-0.1,0.6-0.2,0.9-0.2c0.5,0,1,0.2,1.3,0.5
					c0.3,0.3,0.5,0.7,0.5,1.1C72.2,17.9,72.1,18,72,18"/>
				<path class="st3" d="M42.5,21.7h-5.1c-0.1,0-0.2-0.1-0.2-0.2V10.9c0-0.2-0.2-0.4-0.4-0.5h-2.2c-0.2,0-0.4,0.2-0.4,0.5v13.2
					c0,0.3,0.2,0.5,0.5,0.5l0,0h7.9c0.2,0,0.4-0.2,0.5-0.4v-2C42.9,21.9,42.8,21.7,42.5,21.7"/>
				<path class="st3" d="M91,15.4c-0.4-0.4-0.8-0.8-1.4-1c-0.7-0.2-1.4-0.4-2.1-0.3c-0.8,0-1.6,0.1-2.3,0.4
					c-0.6,0.2-1.1,0.5-1.6,0.9c-0.2,0.2-0.2,0.5,0,0.6l0,0l0.9,0.9l0,0c0.2,0.2,0.5,0.2,0.6,0c0,0,0,0,0,0l0,0l0,0
					c0.2-0.2,0.5-0.4,0.7-0.5c0.4-0.2,0.9-0.3,1.3-0.3c0.5,0,1,0.2,1.3,0.5c0.3,0.3,0.5,0.8,0.6,1.6c0,0.1-0.1,0.2-0.2,0.2
					c-0.3,0-0.7,0-1.1,0c-0.5,0-1,0.1-1.4,0.1c-0.5,0.1-0.9,0.2-1.4,0.3c-0.4,0.1-0.8,0.3-1.2,0.6c-0.3,0.2-0.6,0.6-0.8,1
					c-0.2,0.4-0.3,0.9-0.3,1.4c0,0.4,0.1,0.9,0.3,1.3c0.2,0.4,0.4,0.7,0.7,0.9c0.3,0.3,0.7,0.4,1.1,0.6c0.4,0.1,0.9,0.2,1.3,0.2
					c0.6,0,1.2-0.1,1.7-0.3c0.4-0.2,0.8-0.5,1.1-0.8h0c0.1,0,0.1,0,0.2,0c0,0,0,0.1,0,0.1v0.3c0,0.2,0.2,0.4,0.4,0.4h1.9
					c0.2,0,0.4-0.2,0.4-0.4v-4.5c0-0.9-0.1-1.8-0.2-2.7C91.6,16.4,91.3,15.8,91,15.4 M89.2,20.9c0,0.5-0.2,1-0.7,1.3
					c-0.2,0.2-0.5,0.3-0.7,0.3c-0.3,0.1-0.6,0.1-0.8,0.1c-0.3,0-0.7-0.1-1-0.2c-0.3-0.1-0.5-0.4-0.5-0.8c0-0.3,0.1-0.6,0.3-0.8
					c0.2-0.2,0.5-0.3,0.8-0.4c0.3-0.1,0.6-0.2,1-0.2c0.3,0,0.6,0,0.8,0h0.5c0.1,0,0.2,0.1,0.2,0.2L89.2,20.9z"/>
				<path class="st3" d="M101.6,15.3c-0.3-0.4-0.6-0.8-1.1-1c-0.6-0.3-1.2-0.4-1.8-0.4c-0.3,0-0.7,0-1,0.1c-0.3,0.1-0.6,0.2-0.8,0.4
					c-0.2,0.1-0.4,0.3-0.6,0.5c-0.1,0.1-0.1,0.1-0.2,0.2c-0.1,0.1-0.2,0.1-0.2,0c0,0,0-0.1,0-0.1v-0.4c0-0.3-0.2-0.5-0.5-0.5h-2
					c-0.3,0-0.5,0.2-0.5,0.5c0,0,0,0,0,0l0,0v9.4c0,0.2,0.2,0.4,0.5,0.4h2.1c0.2,0,0.4-0.2,0.5-0.4v-5c0-0.3,0-0.6,0.1-0.9
					c0-0.3,0.1-0.5,0.2-0.8c0.1-0.2,0.3-0.4,0.5-0.6c0.3-0.1,0.6-0.2,0.9-0.2c0.6-0.1,1.2,0.3,1.4,0.9c0.1,0.3,0.2,0.5,0.2,0.8
					c0,0.3,0,0.6,0,0.9v4.9c0,0.2,0.2,0.4,0.5,0.4h2.1c0.2,0,0.4-0.2,0.5-0.4v-5.5c0-0.6,0-1.2-0.1-1.8
					C102.1,16.3,101.9,15.8,101.6,15.3"/>
				<path class="st3" d="M113.2,9.5h-2.1c-0.2,0-0.4,0.2-0.4,0.4v5c0,0.1-0.1,0.1-0.2,0.1c0,0-0.1,0-0.1-0.1l0,0l0,0c0,0,0,0,0,0
					l0,0c-0.3-0.3-0.6-0.5-1-0.6c-0.6-0.2-1.2-0.3-1.7-0.3c-0.6,0-1.3,0.1-1.8,0.4c-0.5,0.3-1,0.7-1.4,1.1c-0.4,0.5-0.7,1-0.9,1.6
					c-0.4,1.5-0.4,3,0,4.5c0.2,0.6,0.5,1.1,1,1.6c0.4,0.4,0.9,0.8,1.5,1c0.6,0.3,1.3,0.4,1.9,0.4c0.3,0,0.7,0,1-0.1
					c0.3-0.1,0.6-0.2,0.9-0.4c0.2-0.1,0.5-0.3,0.7-0.5l0.2-0.2l0-0.1c0,0,0.1,0,0.1,0c0.1,0,0.1,0.1,0.2,0.1v0.4
					c0,0.2,0.2,0.4,0.4,0.4h1.9c0.2,0,0.4-0.2,0.4-0.5V10l0,0C113.7,9.7,113.5,9.5,113.2,9.5 M110.3,21.5c-1,0.9-2.5,0.9-3.5,0
					c-0.4-0.4-0.6-1.4-0.6-2.1s0.2-1.6,0.6-2c1-0.9,2.5-0.9,3.5,0c0.4,0.5,0.6,1.3,0.6,2S110.7,21,110.3,21.5"/>
				<path class="st3" d="M123.5,15.6c-0.5-0.5-1.1-0.8-1.7-1c-1.4-0.5-2.8-0.5-4.2,0c-0.6,0.2-1.2,0.6-1.7,1c-0.5,0.4-0.9,1-1.1,1.6
					c-0.6,1.5-0.6,3.2,0,4.7c0.3,0.6,0.7,1.2,1.1,1.6c0.5,0.5,1.1,0.8,1.7,1c1.4,0.5,2.8,0.5,4.2,0c0.6-0.2,1.2-0.6,1.7-1
					c0.5-0.4,0.9-1,1.1-1.6c0.6-1.5,0.6-3.2,0-4.7C124.4,16.6,124,16.1,123.5,15.6 M121.5,21.7c-1,0.9-2.5,0.9-3.5,0
					c-0.4-0.4-0.6-1.3-0.6-2.1c0-0.7,0.2-1.6,0.6-2.1c1-0.9,2.5-0.9,3.5,0c0.4,0.4,0.6,1.3,0.6,2.1
					C122.1,20.3,121.9,21.2,121.5,21.7"/>
				<path class="st3" d="M132.6,14.1c-0.7,0-1.4,0.1-2,0.4c-0.5,0.2-1,0.5-1.4,0.8c-0.1,0.2-0.1,0.4,0,0.6l0,0l0.4,0.4
					c0.2,0.1,0.4,0.2,0.5,0.1l0.1,0l0,0l0,0c0.3-0.2,0.6-0.4,0.9-0.5c0.5-0.2,1-0.3,1.5-0.2c0.6,0,1.2,0.1,1.7,0.5
					c0.4,0.4,0.7,1,0.6,1.5v0.4c0,0.1-0.1,0.2-0.2,0.2h-0.4c-0.6,0-1.2,0-1.9,0.1c-0.7,0-1.3,0.2-1.9,0.4c-0.6,0.2-1.1,0.5-1.5,1
					c-0.4,0.4-0.6,1.3-0.6,2.1c0,0.5,0.1,1,0.3,1.4c0.2,0.3,0.4,0.6,0.7,0.9c0.3,0.2,0.7,0.4,1.1,0.5c0.4,0.1,0.9,0.2,1.4,0.2
					c0.6,0,1.3-0.1,1.9-0.5c0.3-0.2,0.6-0.5,0.9-0.7l0,0l0.1-0.1l0,0c0.1-0.1,0.2-0.1,0.2,0c0,0,0,0,0,0c0,0,0.1,0.1,0.1,0.1v0.5
					c0,0.2,0.2,0.4,0.4,0.4h0.6c0.2,0,0.4-0.2,0.4-0.4v-5.7c0-1.3-0.3-2.7-0.9-3.3C135,14.5,134,14.1,132.6,14.1 M135,20.2
					c0,0.4-0.1,0.9-0.2,1.3c-0.1,0.4-0.3,0.8-0.5,1.1c-0.2,0.3-0.5,0.5-0.9,0.6c-0.4,0.2-0.8,0.2-1.2,0.2c-0.5,0-1-0.1-1.5-0.4
					c-0.4-0.2-0.6-0.9-0.6-1.5c0-0.6,0.3-1.3,0.9-1.6c0.8-0.3,1.6-0.5,2.4-0.4h1.3c0.1,0,0.2,0.1,0.2,0.2L135,20.2z"/>
				<path class="st3" d="M142.7,23.3h-1.2c-0.2,0-0.4-0.1-0.6-0.2c-0.2-0.1-0.3-0.3-0.4-0.5c-0.1-0.2-0.2-0.4-0.2-0.7
					c0-0.2,0-0.5,0-0.9v-5.3c0-0.1,0.1-0.2,0.2-0.2h2.1c0.2,0,0.4-0.2,0.4-0.4v-0.5c0-0.2-0.2-0.4-0.5-0.4h-2.1
					c-0.1,0-0.2-0.1-0.2-0.2V13c0-0.2-0.2-0.5-0.4-0.5h-0.7c-0.3,0-0.5,0.2-0.5,0.5c0,0,0,0,0,0l0,0v1.2c0,0.1-0.1,0.2-0.2,0.2h-1.4
					c-0.2,0-0.4,0.2-0.5,0.4v0.4c0,0.2,0.2,0.4,0.4,0.4h1.4c0.1,0,0.2,0.1,0.2,0.2v5.8c0,0.4,0,0.9,0.1,1.3c0,0.4,0.2,0.7,0.4,1
					c0.2,0.3,0.5,0.5,0.8,0.6c0.4,0.2,0.9,0.2,1.3,0.2h1.4c0.2,0,0.4-0.2,0.4-0.4v-0.6C143.1,23.5,142.9,23.3,142.7,23.3"/>
				<path class="st3" d="M126.6,22.5c-0.3,0-0.6,0.1-0.8,0.3c-0.4,0.4-0.4,1.1,0.1,1.5c0.4,0.4,1.1,0.4,1.5,0l0,0
					c0.4-0.4,0.4-1.1,0-1.5C127.2,22.6,126.9,22.5,126.6,22.5"/>
			</g>
		</g>
		<g id="TakeawayCOM_Full_Colour">
			<path id="House" class="st3" d="M13,0.3c0.5-0.4,1.2-0.4,1.8,0c1.4,0.9,2.7,1.8,3.9,2.8c0,0,0.3,0.2,0.4-0.2c0,0-0.1-1.2,0.1-1.6
				c0.1-0.3,0.4-0.5,0.7-0.5c0,0,1.5,0.1,2.5,0.2c0.4,0.1,0.8,0.4,0.8,0.9c0,0,0.6,4.2,0.8,5.7c0,0,0.1,0.8,1.2,2.1
				c0,0,2.3,3.2,2.5,3.8c0,0,0.5,1.1-0.6,1.2c0,0-2.1,0.2-2.3,0.2c-0.3,0-0.5,0.3-0.5,0.6c0,0,0,0,0,0c0,0,0,0,0,0
				c0,0-0.1,7.3-0.6,10.9c0,0-0.1,1.4-0.9,1.4c0,0-2.1-0.1-2.6-0.1c0,0-0.2,0-0.2-0.3c0,0,1.1-11.5,0.3-17.2c0,0,0-0.7-0.6-0.9
				c0,0-0.5-0.2-1,0.5c0,0-3.4,4.3-3.4,10.3c0,0-0.1,1.8,0.2,2.3c0,0,0.2,0.3,1.1,0.4l1.1,0.2c0,0,0.2,0,0.2,0.3c0,0-0.2,3.4-0.3,4
				c0,0.1,0,0.3-0.1,0.4c0,0,0,0.1-0.4,0.1c0,0-4.9,0-5.5,0c0,0-0.2,0-0.3-0.1c-0.1-0.1-0.3-4.3-0.3-4.9c0-0.1,0.1-0.2,0.2-0.3
				c0.8-0.5,1.3-1.3,1.4-2.2c0,0,0.1-0.3,0-1.9c0,0,0.2-6.4,0.2-7.5c0,0,0-0.3-0.4-0.4c-0.2,0-0.4,0.1-0.5,0.3v0
				c0,0-0.3,4.2-0.2,5.9c0,0,0.1,1.1-0.7,1.1c0,0-0.7,0.1-0.8-0.8c0,0,0.1-4.1,0.2-6.2c0-0.2-0.2-0.4-0.5-0.4
				c-0.2,0-0.5,0.1-0.5,0.4c0,0,0,0,0,0c0,0-0.3,4-0.2,6c0,0,0.1,1-0.7,1c0,0-0.7,0.1-0.7-0.8c0,0,0.2-5.7,0.2-6.1
				c0-0.3-0.2-0.5-0.4-0.5c0,0,0,0,0,0h0c-0.2,0-0.5,0.1-0.5,0.4c0,0,0,0,0,0c0,0,0,0,0,0c0,0-0.3,6.8-0.2,8.8c0,0,0,2,1.5,2.9
				c0,0,0.2,0.1,0.2,0.3c0,0,0.2,3.6,0.3,4.7c0,0,0.1,0.3-0.2,0.3L5,28c0,0-0.6,0-0.8-0.7c-0.1-0.7-0.8-6.7-0.7-11.5
				c0-0.3-0.2-0.6-0.5-0.6c0,0-1.9-0.2-2.4-0.3c-0.4-0.1-0.7-0.6-0.6-1c0,0,0,0,0,0c0-0.1,0-0.1,0.1-0.2C0.1,13.7,4.3,5.7,13,0.3z"
				/>
		</g>
	</g>
</g>
<g id="PL" class="st0">
	<g id="PysznePL" class="st1">
		<g id="TakeawayCOM_Full_Colour_4_">
			<path id="House_4_" class="st3" d="M13,0.3c0.5-0.4,1.2-0.4,1.8,0c1.4,0.9,2.7,1.8,4,2.8c0,0,0.3,0.2,0.4-0.2
				c0,0-0.1-1.2,0.1-1.6c0.1-0.3,0.4-0.5,0.7-0.5c0,0,1.6,0.1,2.5,0.2c0.4,0.1,0.8,0.4,0.8,0.9c0,0,0.6,4.2,0.8,5.8
				c0,0,0.1,0.8,1.3,2.1c0,0,2.3,3.2,2.5,3.8c0,0,0.5,1.1-0.6,1.3c0,0-2.1,0.2-2.3,0.3c-0.3,0-0.5,0.3-0.5,0.6c0,0,0,0,0,0v0
				c0,0-0.1,7.3-0.6,10.9c0,0-0.1,1.4-0.9,1.4c0,0-2.1-0.1-2.6-0.1c0,0-0.2,0-0.2-0.3c0,0,1.1-11.5,0.4-17.3c0,0,0-0.8-0.6-0.9
				c0,0-0.5-0.2-1,0.5c0,0-3.4,4.3-3.4,10.3c0,0-0.1,1.8,0.2,2.3c0,0,0.2,0.3,1.1,0.4l1.1,0.2c0,0,0.2,0,0.2,0.3c0,0-0.3,3.4-0.3,4
				c0,0.1,0,0.3-0.1,0.4c0,0,0,0.1-0.4,0.1c0,0-4.9,0-5.5,0c0,0-0.2,0-0.3-0.1c-0.1-0.1-0.3-4.3-0.3-4.9c0-0.1,0.1-0.2,0.2-0.3
				c0.8-0.5,1.3-1.3,1.4-2.2c0,0,0.1-0.3,0-1.9c0,0,0.2-6.4,0.2-7.5c0,0,0-0.4-0.4-0.4c-0.2,0-0.4,0.1-0.5,0.3c0,0,0,0,0,0
				c0,0-0.3,4.3-0.3,5.9c0,0,0.1,1.1-0.7,1.1c0,0-0.8,0.1-0.8-0.8c0,0,0.1-4.1,0.2-6.2c0-0.2-0.2-0.4-0.4-0.4
				c-0.2,0-0.5,0.1-0.5,0.4c0,0,0,0,0,0c0,0-0.3,4-0.3,6c0,0,0.1,1-0.7,1c0,0-0.7,0.1-0.7-0.8c0,0,0.2-5.7,0.2-6.1
				c0-0.2-0.1-0.5-0.4-0.5h0c-0.2,0-0.5,0.1-0.5,0.4c0,0,0,0,0,0c0,0,0,0,0,0c0,0-0.3,6.8-0.3,8.8c0,0,0,2,1.5,2.9
				c0,0,0.2,0.1,0.2,0.3c0,0,0.2,3.6,0.3,4.8c0,0,0.1,0.3-0.2,0.3L5,28c0,0-0.6,0-0.8-0.7C4,26.5,3.3,20.5,3.5,15.8
				c0-0.3-0.2-0.6-0.5-0.6c0,0-1.9-0.2-2.4-0.3c-0.4-0.1-0.7-0.6-0.6-1c0-0.1,0-0.1,0.1-0.2C0.1,13.7,4.3,5.7,13,0.3z"/>
		</g>
		<g id="PysznePL-2">
			<g id="PysznePL_Full_Colour">
				<g id="PysznePL-2-2">
					<path class="st3" d="M92.3,15.2c-0.4-0.5-0.9-0.8-1.5-1.1c-0.6-0.3-1.3-0.4-1.9-0.4c-0.7,0-1.5,0.1-2.2,0.4
						c-0.6,0.2-1.2,0.6-1.7,1.1c-0.5,0.5-0.9,1-1.2,1.6c-0.6,1.6-0.6,3.3,0,4.9c0.3,0.6,0.7,1.2,1.2,1.6c0.5,0.5,1.1,0.8,1.7,1.1
						c0.7,0.2,1.4,0.4,2.2,0.4c0.8,0,1.6-0.2,2.3-0.5c0.6-0.3,1.1-0.6,1.5-1.1c0.2-0.2,0.2-0.5,0-0.6l-1.4-1l0,0l-0.1-0.1
						c-0.2-0.1-0.4-0.1-0.6,0.1c-0.2,0.2-0.4,0.4-0.7,0.6c-0.4,0.2-0.8,0.3-1.3,0.3c-0.5,0-1.1-0.2-1.5-0.5
						c-0.5-0.5-0.7-1.1-0.8-1.7c0-0.1,0.1-0.2,0.2-0.2h6.5c0.2,0,0.4-0.2,0.4-0.5V19c0-0.7-0.1-1.5-0.3-2.1
						C93,16.3,92.7,15.7,92.3,15.2z M90.2,17.9h-3.6c-0.1,0-0.2-0.1-0.2-0.2c0-0.2,0.1-0.3,0.1-0.5c0.1-0.2,0.2-0.4,0.4-0.6
						c0.2-0.2,0.4-0.3,0.7-0.4C88,16,88.3,16,88.6,16c0.5,0,1,0.2,1.4,0.6c0.3,0.3,0.5,0.7,0.5,1.1C90.4,17.8,90.4,17.9,90.2,17.9z"
						/>
					<path class="st3" d="M61.5,18.9c-0.4-0.2-0.8-0.4-1.2-0.5l-1.2-0.3c-0.3-0.1-0.6-0.2-0.9-0.3c-0.2-0.1-0.4-0.3-0.4-0.6
						c0-0.3,0.1-0.5,0.4-0.7c0.2-0.1,0.5-0.2,0.7-0.2c0.5,0,1.1,0.2,1.5,0.6c0.2,0.2,0.4,0.2,0.6,0l1.2-1.3c0.1-0.2,0.1-0.4,0-0.6
						c-0.4-0.4-0.9-0.6-1.4-0.8c-0.6-0.2-1.3-0.3-1.9-0.3c-0.5,0-1,0.1-1.5,0.2c-0.5,0.1-0.9,0.3-1.3,0.6c-0.4,0.3-0.7,0.7-0.9,1.1
						c-0.2,0.5-0.4,1-0.3,1.6c0,0.5,0.1,1.1,0.4,1.6c0.2,0.4,0.6,0.7,0.9,0.9c0.4,0.2,0.8,0.4,1.2,0.5l1.2,0.3
						c0.3,0.1,0.6,0.2,0.9,0.3c0.2,0.1,0.4,0.3,0.4,0.6c0,0.3-0.2,0.5-0.4,0.6c-0.3,0.1-0.6,0.2-0.9,0.2c-0.4,0-0.8-0.1-1.2-0.3
						c-0.2-0.1-0.5-0.3-0.6-0.5c-0.2-0.1-0.4-0.1-0.6,0l-1.2,1.5c-0.1,0.2-0.1,0.5,0.1,0.6l0,0c0.4,0.4,0.9,0.6,1.4,0.8
						c0.7,0.2,1.4,0.3,2.1,0.3c0.5,0,1.1-0.1,1.6-0.2c0.5-0.1,1-0.3,1.4-0.6c0.4-0.3,0.8-0.6,1.1-1c0.3-0.5,0.4-1.1,0.4-1.7
						c0-0.5-0.1-1.1-0.4-1.6C62.3,19.4,61.9,19.1,61.5,18.9z"/>
					<path class="st3" d="M42.2,11.8c-0.5-0.3-1.1-0.6-1.6-0.7C39.9,11,39.2,11,38.6,11h-4.1c-0.2,0-0.4,0.2-0.4,0.4v12.8
						c0,0.2,0.2,0.4,0.4,0.4h2.2c0.2,0,0.4-0.2,0.4-0.4v-4.7c0-0.1,0.1-0.2,0.2-0.2h1.4c0.6,0,1.3-0.1,1.9-0.2
						c0.6-0.1,1.1-0.3,1.6-0.7c0.5-0.3,0.8-0.8,1.1-1.3c0.3-0.6,0.4-1.3,0.4-2c0-0.7-0.1-1.4-0.4-2C43,12.6,42.6,12.1,42.2,11.8z
						 M40.4,15.9c-0.1,0.2-0.3,0.4-0.5,0.5c-0.2,0.1-0.4,0.2-0.6,0.2c-0.3,0.1-0.5,0.1-0.8,0.1h-1.2c-0.1,0-0.2-0.1-0.2-0.2v-2.8
						c0-0.1,0.1-0.2,0.2-0.2h0.8c0.3,0,0.6,0,0.9,0c0.3,0,0.5,0.1,0.7,0.2c0.2,0.1,0.5,0.3,0.6,0.5c0.2,0.2,0.3,0.5,0.2,0.8
						C40.6,15.4,40.5,15.7,40.4,15.9z"/>
					<path class="st3" d="M71.8,22.2h-4.7C67,22.2,67,22.1,67,22c0,0,0-0.1,0-0.1l0.1-0.1l0.1,0l4.4-4.2l0.2-0.2
						c0.2-0.2,0.3-0.4,0.3-0.7v-2.1l0,0c0-0.3-0.2-0.5-0.5-0.5h0H64c-0.3,0-0.5,0.2-0.5,0.5v1.5c0,0.3,0.2,0.5,0.5,0.5h4.2
						c0.1,0,0.1,0.1,0.1,0.2c0,0,0,0.1,0,0.1l-3.9,3.8l0,0l-0.6,0.5l-0.1,0.1c-0.2,0.2-0.3,0.4-0.3,0.6v2.2c0,0.3,0.2,0.5,0.5,0.5
						h7.9c0.3,0,0.5-0.2,0.5-0.5l0,0v-1.5l0,0C72.3,22.4,72,22.2,71.8,22.2z"/>
					<path class="st3" d="M54.9,14.5L54.9,14.5C54.9,14.5,54.9,14.4,54.9,14.5c-0.1-0.2-0.2-0.3-0.4-0.4h-1.8
						c-0.3,0-0.7,0.2-0.8,0.5l0,0c0,0,0,0.1,0,0.1v0c0,0,0,0.1,0,0.1L51.8,15l0,0l-1.7,5.4l0,0l0,0.1c0,0.1-0.2,0.2-0.3,0.1
						c-0.1,0-0.1-0.1-0.1-0.1l-2-5.5l0,0l0-0.1l-0.1-0.4c-0.2-0.3-0.4-0.5-0.8-0.5h-2.1c-0.1,0-0.3,0.1-0.3,0.3c0,0,0,0,0,0.1l0,0
						c0,0.1,0,0.2,0,0.2l3.9,9.6c0.1,0.2,0,0.4,0,0.6v0l-0.1,0.2c-0.1,0.3-0.2,0.5-0.3,0.7c-0.1,0.2-0.2,0.4-0.4,0.5
						c-0.2,0.1-0.3,0.3-0.5,0.3c-0.3,0.1-0.5,0.1-0.8,0.1h-1.3c-0.2,0-0.4,0.2-0.4,0.4v1.6c0,0.2,0.2,0.4,0.4,0.4h1.7
						c0.6,0,1.2-0.1,1.7-0.2c0.4-0.1,0.8-0.3,1.1-0.6c0.3-0.3,0.5-0.6,0.7-1c0.2-0.4,0.4-0.9,0.6-1.4l4.2-11.4
						C54.9,14.6,54.9,14.5,54.9,14.5z"/>
					<path class="st3" d="M81.8,15.2c-0.3-0.4-0.7-0.8-1.1-1c-0.6-0.3-1.2-0.4-1.9-0.4c-0.3,0-0.7,0-1,0.1c-0.3,0.1-0.6,0.2-0.8,0.4
						c-0.2,0.1-0.4,0.3-0.6,0.5c-0.1,0.1-0.1,0.1-0.2,0.2c-0.1,0.1-0.2,0.1-0.2,0c0,0,0-0.1,0-0.1v-0.4c0-0.3-0.2-0.5-0.5-0.5h-2
						c-0.3,0-0.5,0.2-0.5,0.5v9.6c0,0.2,0.2,0.4,0.5,0.4h2.1c0.2,0,0.5-0.2,0.5-0.4v-5.1c0-0.3,0-0.6,0.1-0.9c0-0.3,0.1-0.6,0.2-0.8
						c0.1-0.2,0.3-0.4,0.6-0.6c0.3-0.2,0.6-0.2,1-0.2c0.6-0.1,1.2,0.3,1.4,0.9c0.1,0.3,0.2,0.6,0.2,0.8c0,0.3,0,0.6,0,0.9v5
						c0,0.2,0.2,0.4,0.5,0.4H82c0.2,0,0.5-0.2,0.5-0.4v-5.6c0-0.6,0-1.2-0.1-1.9C82.2,16.2,82,15.7,81.8,15.2z"/>
					<path class="st3" d="M109.2,9.9h-0.7c-0.3,0-0.5,0.2-0.5,0.5v13.8c0,0.3,0.2,0.5,0.5,0.5h0.7c0.3,0,0.5-0.2,0.5-0.5V10.4
						C109.7,10.1,109.5,9.9,109.2,9.9z"/>
					<path class="st3" d="M94.9,22.5c-0.3,0-0.6,0.1-0.8,0.3c-0.4,0.5-0.4,1.2,0.1,1.6c0.4,0.4,1.1,0.4,1.6,0c0,0,0,0,0,0
						c0.4-0.4,0.4-1.2,0-1.6C95.5,22.6,95.2,22.5,94.9,22.5z"/>
					<path class="st3" d="M105.4,15.5c-0.4-0.4-0.9-0.8-1.4-1c-1.1-0.5-2.4-0.5-3.6,0c-0.5,0.2-0.9,0.5-1.2,0.9v-0.8l0,0
						c0-0.2-0.2-0.4-0.5-0.4H98c-0.2,0-0.4,0.2-0.5,0.4v14.2c0,0.2,0.2,0.4,0.5,0.4h0.7c0.2,0,0.4-0.2,0.5-0.4l0,0v-4.9
						c0.3,0.3,0.7,0.6,1.2,0.7c1.1,0.5,2.4,0.5,3.6,0c0.5-0.2,1-0.6,1.4-1c0.4-0.5,0.7-1,0.9-1.6c0.2-0.7,0.3-1.5,0.3-2.3
						c0-0.7-0.1-1.9-0.3-2.6C106.1,16.5,105.8,15.9,105.4,15.5z M105,21.3c-0.1,0.4-0.3,0.8-0.6,1.1c-0.9,1.2-2.7,1.4-3.9,0.4
						c-0.2-0.1-0.3-0.3-0.4-0.4c-0.3-0.3-0.5-0.7-0.6-1.1c-0.1-0.5-0.2-1.1-0.2-1.7c0-0.6,0.1-1.3,0.2-1.9c0.1-0.4,0.3-0.8,0.6-1.1
						c0.3-0.3,0.6-0.6,0.9-0.7c1.2-0.6,2.6-0.3,3.4,0.7c0.3,0.3,0.5,0.7,0.6,1.1c0.1,0.6,0.2,1.3,0.2,1.9
						C105.2,20.2,105.1,20.7,105,21.3z"/>
				</g>
			</g>
		</g>
	</g>
</g>
<g id="com" class="st0">
	<g id="TakeawayCOM" class="st1">
		<g id="TakeawayCOM_Full_Colour_5_">
			<g id="TakeawayCOM-2">
				<path class="st3" d="M43.6,12.7v-1.9c0-0.2-0.2-0.4-0.4-0.4H32.9c-0.2,0-0.4,0.2-0.4,0.4v1.9c0,0.2,0.2,0.4,0.4,0.4h3.3
					c0.1,0,0.2,0.1,0.2,0.2V24c0,0.2,0.2,0.4,0.4,0.5h2.2c0.2,0,0.4-0.2,0.4-0.4V13.3c0-0.1,0.1-0.2,0.2-0.2h3.4
					C43.4,13.2,43.6,13,43.6,12.7"/>
				<path class="st3" d="M49.3,15.3c-0.4-0.4-0.8-0.8-1.4-1c-0.7-0.2-1.4-0.4-2.2-0.3c-0.8,0-1.6,0.1-2.3,0.4
					c-0.6,0.2-1.1,0.5-1.6,0.9c-0.2,0.2-0.2,0.5,0,0.6l0,0l0.9,1l0,0c0.2,0.2,0.5,0.2,0.6,0l0,0c0.2-0.2,0.5-0.4,0.7-0.5
					c0.4-0.2,0.9-0.3,1.3-0.3c0.5,0,1,0.2,1.3,0.5c0.3,0.3,0.5,0.8,0.6,1.6c0,0.1-0.1,0.2-0.2,0.2l0,0c-0.3,0-0.7,0-1.1,0
					c-0.5,0-1,0.1-1.5,0.1c-0.5,0.1-0.9,0.2-1.4,0.3c-0.4,0.1-0.8,0.3-1.2,0.6c-0.3,0.3-0.6,0.6-0.8,1c-0.2,0.4-0.3,0.9-0.3,1.4
					c0,0.4,0.1,0.9,0.3,1.3c0.2,0.4,0.4,0.7,0.7,0.9c0.3,0.3,0.7,0.5,1.1,0.6c0.4,0.1,0.9,0.2,1.3,0.2c0.6,0,1.2-0.1,1.7-0.3
					c0.4-0.2,0.8-0.5,1.1-0.8h0c0.1,0,0.1,0,0.2,0c0,0,0,0.1,0,0.1v0.3c0,0.2,0.2,0.4,0.4,0.4h1.9c0.2,0,0.4-0.2,0.4-0.4v-4.4
					c0-0.9-0.1-1.8-0.2-2.7C49.9,16.3,49.7,15.8,49.3,15.3 M47.5,20.9c0,0.3-0.1,0.5-0.2,0.8c-0.1,0.2-0.3,0.4-0.5,0.6
					c-0.2,0.1-0.5,0.3-0.7,0.3c-0.3,0.1-0.6,0.1-0.8,0.1c-0.3,0-0.7-0.1-1-0.2c-0.3-0.2-0.5-0.5-0.5-0.8c0-0.3,0.1-0.6,0.3-0.8
					c0.2-0.2,0.5-0.3,0.8-0.4c0.3-0.1,0.6-0.1,1-0.2c0.3,0,0.6,0,0.8,0h0.5c0.1,0,0.2,0.1,0.2,0.2L47.5,20.9z"/>
				<path class="st3" d="M78.9,15.3c-0.4-0.4-0.8-0.8-1.3-1c-0.7-0.2-1.4-0.4-2.2-0.3c-0.8,0-1.6,0.1-2.3,0.4
					c-0.6,0.2-1.1,0.5-1.6,0.9c-0.2,0.2-0.2,0.5,0,0.6l0,0l0.9,1l0,0c0.2,0.2,0.5,0.2,0.6,0c0.2-0.2,0.5-0.4,0.7-0.5
					c0.4-0.2,0.9-0.3,1.3-0.3c0.5,0,1,0.2,1.3,0.5c0.4,0.3,0.5,0.8,0.6,1.6c0,0.1-0.1,0.2-0.2,0.2l0,0c-0.3,0-0.7,0-1.1,0
					c-0.5,0-1,0.1-1.4,0.1c-0.5,0.1-0.9,0.2-1.4,0.3c-0.4,0.1-0.8,0.3-1.2,0.6c-0.3,0.2-0.6,0.6-0.8,1c-0.2,0.4-0.3,0.9-0.3,1.4
					c0,0.4,0.1,0.9,0.3,1.3c0.2,0.4,0.4,0.7,0.7,0.9c0.3,0.3,0.7,0.5,1.1,0.6c1,0.3,2.1,0.2,3-0.1c0.4-0.2,0.8-0.5,1.1-0.8h0
					c0.1,0,0.1,0,0.2,0c0,0,0,0.1,0,0.1v0.3c0,0.2,0.2,0.4,0.4,0.4h1.9c0.2,0,0.4-0.2,0.4-0.4v-4.4c0-0.9-0.1-1.8-0.2-2.7
					C79.5,16.3,79.3,15.8,78.9,15.3 M77.1,20.9c0,0.3-0.1,0.6-0.2,0.8c-0.1,0.2-0.3,0.4-0.5,0.5c-0.2,0.1-0.5,0.3-0.7,0.3
					c-0.3,0.1-0.6,0.1-0.8,0.1c-0.3,0-0.7-0.1-1-0.2c-0.3-0.2-0.5-0.5-0.5-0.8c0-0.3,0.1-0.6,0.3-0.8c0.2-0.2,0.5-0.3,0.8-0.4
					c0.3-0.1,0.6-0.1,1-0.2c0.3,0,0.6,0,0.8,0h0.5c0.1,0,0.2,0.1,0.2,0.2L77.1,20.9z"/>
				<path class="st3" d="M104.5,15.3c-0.4-0.4-0.8-0.8-1.4-1c-0.7-0.2-1.4-0.4-2.2-0.3c-0.8,0-1.6,0.1-2.3,0.4
					c-0.6,0.2-1.1,0.5-1.6,0.9c-0.2,0.2-0.2,0.5,0,0.6l0,0l0.9,1l0,0c0.2,0.2,0.5,0.2,0.6,0c0.2-0.2,0.5-0.4,0.7-0.5
					c0.4-0.2,0.9-0.3,1.3-0.3c0.5,0,1,0.2,1.3,0.5c0.4,0.3,0.5,0.8,0.6,1.6c0,0.1-0.1,0.2-0.2,0.2l0,0c-0.3,0-0.7,0-1.1,0
					c-0.5,0-1,0.1-1.4,0.1c-0.5,0.1-0.9,0.2-1.4,0.3c-0.4,0.1-0.8,0.3-1.2,0.6c-0.3,0.2-0.6,0.6-0.8,1c-0.2,0.4-0.3,0.9-0.3,1.4
					c0,0.4,0.1,0.9,0.3,1.3c0.2,0.4,0.4,0.7,0.7,0.9c0.3,0.3,0.7,0.5,1.1,0.6c1,0.3,2.1,0.2,3-0.1c0.4-0.2,0.8-0.4,1.1-0.8h0
					c0.1,0,0.1,0,0.2,0c0,0,0,0.1,0,0.1v0.3c0,0.2,0.2,0.4,0.4,0.4h1.9c0.2,0,0.4-0.2,0.4-0.4v-4.4c0-0.9-0.1-1.8-0.2-2.7
					C105.1,16.3,104.8,15.8,104.5,15.3 M102.7,20.9c0,0.3-0.1,0.5-0.2,0.8c-0.1,0.2-0.3,0.4-0.5,0.6c-0.2,0.1-0.5,0.3-0.7,0.3
					c-0.3,0.1-0.6,0.1-0.8,0.1c-0.3,0-0.7-0.1-1-0.2C99.1,22.3,99,22,99,21.6c0-0.3,0.1-0.6,0.3-0.8c0.2-0.2,0.5-0.3,0.8-0.4
					c0.3-0.1,0.6-0.1,1-0.2c0.3,0,0.6,0,0.8,0h0.5c0.1,0,0.2,0.1,0.2,0.2L102.7,20.9z"/>
				<path class="st3" d="M69.2,15.4c-0.4-0.4-0.9-0.8-1.4-1c-0.6-0.2-1.2-0.4-1.9-0.4c-0.7,0-1.4,0.1-2.1,0.4
					c-0.6,0.2-1.2,0.6-1.7,1c-0.5,0.4-0.9,1-1.1,1.6c-0.6,1.5-0.6,3.2,0,4.7c0.3,0.6,0.7,1.1,1.1,1.6c0.5,0.5,1.1,0.8,1.7,1
					c0.7,0.2,1.4,0.4,2.1,0.4c0.8,0,1.6-0.2,2.3-0.5c0.6-0.2,1.1-0.6,1.5-1c0.2-0.2,0.2-0.4,0-0.6l-1.3-1l0,0l-0.1-0.1
					c-0.2-0.1-0.4-0.1-0.5,0.1c-0.2,0.2-0.4,0.4-0.6,0.5c-0.4,0.2-0.8,0.3-1.2,0.3c-0.5,0-1.1-0.2-1.5-0.5c-0.4-0.5-0.7-1.1-0.8-1.7
					c0-0.1,0.1-0.2,0.2-0.2H70c0.2,0,0.4-0.2,0.4-0.5v-0.5c0-0.7-0.1-1.4-0.3-2.1C69.9,16.4,69.6,15.9,69.2,15.4 M67.2,18h-3.5
					c-0.1,0-0.2-0.1-0.2-0.2c0-0.2,0.1-0.3,0.1-0.5c0.1-0.2,0.2-0.4,0.4-0.6c0.2-0.2,0.4-0.3,0.6-0.4c0.3-0.1,0.6-0.2,0.9-0.2
					c0.5,0,1,0.2,1.3,0.5c0.3,0.3,0.5,0.7,0.5,1.1C67.4,17.9,67.3,18,67.2,18"/>
				<path class="st3" d="M57.8,19.5L57.8,19.5L57.8,19.5c-0.2-0.2-0.2-0.4-0.1-0.6l3.5-4.3c0.1-0.1,0.1-0.2,0-0.3
					c0,0-0.1-0.1-0.1-0.1h-2.7c-0.3,0-0.6,0.1-0.7,0.4l0,0l-0.1,0.2l-2.7,3.4l0,0l0,0l0,0h0c-0.1,0-0.1,0-0.2,0c0,0,0-0.1,0-0.1V9.9
					c0-0.2-0.2-0.4-0.4-0.4h-2.1c-0.2,0-0.4,0.2-0.4,0.4V24c0,0.2,0.2,0.4,0.4,0.4H54c0.2,0,0.4-0.2,0.4-0.4v-4c0,0,0-0.1,0-0.1
					c0.1,0,0.1-0.1,0.2,0h0c0,0,0,0,0,0l0,0v0l0.1,0.1l2.6,3.9l0,0l0.1,0.2l0,0c0.2,0.2,0.4,0.3,0.7,0.3h2.9c0,0,0.1,0,0.1,0
					c0.1-0.1,0.1-0.2,0-0.2L57.8,19.5z"/>
				<path class="st3" d="M96.3,15c0-0.1,0.1-0.2,0.1-0.3c0,0,0,0,0-0.1l0,0c0-0.2-0.2-0.3-0.4-0.4h-1.7c-0.4,0-0.8,0.3-0.9,0.7l0,0
					l-0.1,0.2l-1.4,5.3c0,0-0.1,0.1-0.1,0.1c-0.1,0-0.1,0-0.2-0.1l0-0.1l0,0L90.1,15l0,0l0-0.1c-0.1-0.4-0.5-0.6-0.9-0.6h-1.8
					c-0.4,0-0.8,0.3-0.9,0.7l0,0v0l0,0.2l-1.3,5.2c0,0.1-0.2,0.1-0.2,0.1c0,0,0,0,0,0c0,0,0,0-0.1-0.1l-1.5-5.2l-0.1-0.2
					c0,0,0,0,0,0l0,0c-0.1-0.4-0.5-0.6-0.9-0.6h-1.9c-0.2,0-0.4,0.2-0.4,0.4l0,0c0,0,0,0,0,0.1c0,0.1,0,0.2,0,0.3l3.1,8.9
					c0,0,0,0.1,0,0.1c0.1,0.3,0.4,0.5,0.7,0.5h1.8c0.4,0,0.7-0.3,0.8-0.6l0,0l0.1-0.2l1.4-5.1c0.1-0.1,0.2-0.1,0.2,0c0,0,0,0,0,0
					l1.6,5.2c0,0.1,0.1,0.2,0.1,0.3c0.1,0.3,0.4,0.5,0.7,0.5h1.8c0.3,0,0.6-0.2,0.7-0.5l0,0c0,0,0.1-0.2,0.1-0.3l2.9-8.6
					C96.4,15.1,96.4,15,96.3,15"/>
				<path class="st3" d="M115.9,14.6L115.9,14.6C115.9,14.6,115.9,14.6,115.9,14.6c-0.1-0.2-0.2-0.3-0.4-0.4h-1.8
					c-0.3,0-0.7,0.2-0.8,0.5l0,0c0,0,0,0.1,0,0.1l0,0c0,0,0,0,0,0.1l-0.1,0.2l0,0l-1.6,5.4l0,0l0,0.1c0,0.1-0.1,0.2-0.2,0.2
					c-0.1,0-0.2-0.1-0.2-0.1l-1.9-5.5l0-0.1l-0.1-0.4c-0.2-0.3-0.5-0.5-0.8-0.5h-2c-0.1,0-0.3,0.1-0.3,0.2c0,0,0,0,0,0.1l0,0
					c0,0.1,0,0.2,0,0.2l3.9,9.5c0.1,0.2,0,0.4,0,0.6v0l-0.1,0.2c-0.1,0.2-0.2,0.5-0.3,0.7c-0.1,0.2-0.2,0.4-0.3,0.5
					c-0.1,0.1-0.3,0.3-0.5,0.3c-0.3,0.1-0.5,0.1-0.8,0.1H106c-0.2,0-0.4,0.2-0.4,0.4v1.6c0,0.2,0.2,0.4,0.4,0.4h1.7
					c0.6,0,1.2-0.1,1.7-0.2c0.4-0.1,0.8-0.3,1.1-0.6c0.3-0.3,0.5-0.6,0.7-1c0.2-0.4,0.4-0.9,0.6-1.4l4.2-11.2
					C115.9,14.7,115.9,14.7,115.9,14.6"/>
				<path class="st3" d="M115.5,22.4c-0.3,0-0.6,0.1-0.8,0.3c-0.4,0.4-0.4,1.1,0,1.5c0.4,0.4,1.1,0.4,1.5,0l0,0l0,0
					c0.4-0.4,0.4-1.1,0-1.5C116.1,22.5,115.8,22.4,115.5,22.4"/>
				<path class="st3" d="M134,15.4c-0.5-0.4-1-0.8-1.6-1c-1.3-0.5-2.7-0.5-4,0c-0.6,0.2-1.1,0.6-1.6,1c-0.4,0.4-0.8,1-1,1.5
					c-0.2,0.6-0.4,1.8-0.4,2.5c0,0.8,0.1,1.6,0.4,2.3c0.5,1.2,1.4,2.1,2.6,2.6c1.3,0.5,2.7,0.5,4,0c1.2-0.4,2.1-1.4,2.6-2.6
					c0.3-0.7,0.4-1.5,0.4-2.3c0-0.7-0.1-1.9-0.4-2.5C134.8,16.4,134.5,15.9,134,15.4 M133.5,21.2c-0.1,0.4-0.4,0.8-0.7,1.1
					c-0.3,0.3-0.7,0.6-1.1,0.7c-0.9,0.4-1.9,0.4-2.7,0c-0.4-0.2-0.8-0.4-1.1-0.7c-0.3-0.3-0.5-0.7-0.7-1.1c-0.2-0.5-0.2-1.1-0.2-1.7
					c0-0.6,0.1-1.3,0.2-1.9c0.3-0.8,0.9-1.5,1.7-1.8c0.9-0.4,1.9-0.4,2.7,0c0.4,0.2,0.8,0.4,1.1,0.7c0.3,0.3,0.5,0.7,0.7,1.1
					c0.2,0.6,0.2,1.3,0.2,1.9C133.8,20.1,133.7,20.6,133.5,21.2"/>
				<path class="st3" d="M119.3,16.5c0.3-0.3,0.6-0.6,1-0.7c0.4-0.2,0.9-0.3,1.4-0.2c0.4,0,0.9,0.1,1.3,0.2c0.3,0.1,0.6,0.3,0.8,0.6
					c0.2,0.1,0.4,0.1,0.6,0l0.6-0.5c0.2-0.2,0.2-0.4,0-0.6c-0.4-0.4-0.8-0.6-1.3-0.8c-0.6-0.2-1.3-0.4-2-0.4c-0.7,0-1.3,0.1-2,0.4
					c-0.6,0.2-1.1,0.6-1.5,1c-0.4,0.4-0.8,1-1,1.6c-0.5,1.5-0.5,3.2,0,4.8c0.2,0.6,0.6,1.1,1,1.6c0.4,0.5,1,0.8,1.5,1
					c1.3,0.5,2.7,0.5,3.9,0c0.5-0.2,0.9-0.5,1.3-0.8c0.1-0.2,0.1-0.4,0-0.6l-0.5-0.5c-0.2-0.2-0.4-0.2-0.6,0
					c-0.6,0.6-1.3,0.9-2.1,0.8c-0.4,0-0.9-0.1-1.3-0.3c-0.4-0.2-0.7-0.4-1-0.7c-0.3-0.3-0.5-0.7-0.6-1.1c-0.2-0.6-0.2-1.2-0.2-1.7
					c0-0.6,0.1-1.2,0.2-1.7C118.8,17.2,119,16.9,119.3,16.5"/>
				<path class="st3" d="M150.4,16.3c-0.1-0.5-0.3-0.9-0.6-1.2c-0.3-0.3-0.7-0.6-1.1-0.8c-0.5-0.2-1.1-0.3-1.7-0.3
					c-0.6,0-1.2,0.1-1.8,0.5c-0.4,0.3-0.7,0.6-1,1l0,0l0,0.1l0,0l0,0c0,0-0.1,0.1-0.1,0.1c-0.1,0-0.1,0-0.1-0.1c0,0,0,0,0-0.1
					c0-0.1-0.1-0.2-0.1-0.2c-0.1-0.2-0.3-0.4-0.5-0.6c-0.3-0.2-0.5-0.4-0.9-0.5c-0.8-0.2-1.6-0.3-2.4,0c-0.3,0.1-0.6,0.2-0.9,0.4
					c-0.3,0.2-0.5,0.3-0.7,0.6c-0.1,0.1-0.1,0.1-0.2,0.2l0,0c0,0,0,0,0,0l0,0c0,0-0.1,0-0.1,0c-0.1,0-0.1-0.1-0.2-0.1v-0.7
					c0-0.2-0.2-0.4-0.4-0.4h-0.6c-0.2,0-0.4,0.2-0.4,0.5V24c0,0.2,0.2,0.4,0.4,0.4h0.7c0.2,0,0.4-0.2,0.4-0.5v-4.9
					c0-0.5,0.1-1,0.2-1.5c0.1-0.4,0.3-0.8,0.5-1.1c0.2-0.3,0.5-0.6,0.9-0.7c0.4-0.2,0.9-0.3,1.3-0.2c0.6,0,1.1,0.2,1.4,0.7
					c0.3,0.4,0.4,1.2,0.4,2.2V24c0,0.2,0.2,0.4,0.4,0.5h0.7c0.2,0,0.4-0.2,0.4-0.5v-5.8c0-0.4,0.1-0.8,0.2-1.1
					c0.1-0.3,0.3-0.6,0.5-0.9c0.2-0.2,0.5-0.4,0.8-0.6c0.3-0.1,0.6-0.2,0.9-0.2c0.4,0,0.8,0.1,1.1,0.2c0.3,0.1,0.5,0.3,0.7,0.6
					c0.2,0.2,0.3,0.5,0.4,0.8c0.1,0.3,0.1,0.6,0.1,0.9v6c0,0.2,0.2,0.4,0.4,0.4h0.7c0.2,0,0.4-0.2,0.4-0.5v-6
					C150.6,17.4,150.5,16.9,150.4,16.3"/>
			</g>
			<path id="House_5_" class="st3" d="M13,0.3c0.5-0.4,1.2-0.4,1.8,0c1.4,0.9,2.7,1.8,3.9,2.8c0,0,0.3,0.2,0.4-0.2
				c0,0-0.1-1.2,0.1-1.6c0.1-0.3,0.4-0.5,0.7-0.5c0,0,1.6,0.1,2.5,0.2c0.4,0.1,0.8,0.4,0.8,0.9c0,0,0.6,4.2,0.8,5.7
				c0,0,0.1,0.8,1.2,2.1c0,0,2.3,3.2,2.5,3.8c0,0,0.5,1.1-0.6,1.2c0,0-2.1,0.2-2.3,0.2c-0.3,0-0.5,0.3-0.5,0.6c0,0,0,0,0,0v0
				c0,0-0.1,7.3-0.6,10.9c0,0-0.1,1.4-0.9,1.4c0,0-2.1-0.1-2.6-0.1c0,0-0.2,0-0.2-0.3c0,0,1.1-11.5,0.3-17.3c0,0,0-0.7-0.6-0.9
				c0,0-0.5-0.2-1,0.5c0,0-3.4,4.3-3.4,10.3c0,0-0.1,1.8,0.2,2.3c0,0,0.2,0.3,1.1,0.4l1.1,0.1c0,0,0.2,0,0.2,0.3c0,0-0.2,3.4-0.3,4
				c0,0.1,0,0.3-0.1,0.4c0,0,0,0.1-0.4,0.1c0,0-4.9,0-5.5,0c0,0-0.2,0-0.3-0.1c-0.1-0.1-0.3-4.3-0.3-4.9c0-0.1,0.1-0.2,0.2-0.3
				c0.8-0.5,1.3-1.3,1.4-2.2c0,0,0.1-0.3,0-1.9c0,0,0.2-6.4,0.2-7.5c0,0,0-0.3-0.4-0.4c-0.2,0-0.4,0.1-0.5,0.3v0
				c0,0-0.3,4.2-0.2,5.9c0,0,0.1,1.1-0.7,1.1c0,0-0.7,0.1-0.8-0.8c0,0,0.1-4.1,0.2-6.2c0-0.2-0.2-0.4-0.4-0.4
				c-0.2,0-0.5,0.1-0.5,0.4c0,0,0,0,0,0c0,0-0.3,4-0.2,6c0,0,0.1,1-0.7,1c0,0-0.7,0.1-0.7-0.8c0,0,0.2-5.7,0.2-6.1
				c0-0.3-0.1-0.5-0.4-0.5c0,0,0,0,0,0h0c-0.2,0-0.5,0.1-0.5,0.4c0,0,0,0,0,0c0,0,0,0,0,0c0,0-0.3,6.8-0.2,8.8c0,0,0,2,1.5,2.9
				c0,0,0.2,0.1,0.2,0.3c0,0,0.2,3.6,0.3,4.7c0,0,0.1,0.3-0.2,0.3L5,28c0,0-0.6,0-0.8-0.7c-0.1-0.7-0.8-6.7-0.7-11.5
				c0-0.3-0.2-0.6-0.5-0.6c0,0-1.9-0.2-2.4-0.3c-0.4-0.1-0.7-0.6-0.6-1c0-0.1,0-0.1,0.1-0.2C0.1,13.7,4.3,5.7,13,0.3z"/>
		</g>
	</g>
</g>
<g id="NL" class="st0">
	<g id="ThuisbezorgdNL" class="st1">
		<g id="ThuisbezorgdNL-2">
			<g id="ThuisbezorgdNL_Full_Colour">
				<g id="ThuisbezorgdNL-2-2">
					<path class="st3" d="M117.7,15.3c-0.5-0.5-1.1-0.8-1.7-1c-1.4-0.5-2.8-0.5-4.2,0c-0.6,0.2-1.2,0.6-1.7,1
						c-0.5,0.4-0.9,1-1.1,1.6c-0.6,1.5-0.6,3.2,0,4.7c0.3,0.6,0.6,1.1,1.1,1.6c0.5,0.5,1.1,0.8,1.7,1c1.4,0.5,2.8,0.5,4.2,0
						c0.6-0.2,1.2-0.6,1.7-1c0.5-0.4,0.9-1,1.1-1.6c0.5-1.5,0.5-3.2,0-4.7C118.5,16.3,118.1,15.8,117.7,15.3 M115.6,21.3
						c-1,0.9-2.5,0.9-3.5,0c-0.4-0.4-0.6-1.3-0.6-2.1c0-0.7,0.2-1.6,0.6-2.1c1-0.9,2.5-0.9,3.5,0c0.4,0.4,0.6,1.3,0.6,2.1
						C116.2,20,116,20.9,115.6,21.3"/>
					<path class="st3" d="M43,10.4H32.8c-0.2,0-0.4,0.2-0.4,0.4v1.8c0,0.2,0.2,0.4,0.4,0.4h3.3c0.1,0,0.2,0.1,0.2,0.2v10.6
						c0,0.2,0.2,0.4,0.4,0.4h2.2c0.2,0,0.4-0.2,0.4-0.4V13.3c0-0.1,0.1-0.2,0.2-0.2H43c0.2,0,0.4-0.2,0.4-0.4v-1.9
						C43.5,10.6,43.3,10.4,43,10.4"/>
					<path class="st3" d="M97.8,15.3c-0.4-0.4-0.9-0.8-1.4-1c-0.6-0.2-1.2-0.4-1.9-0.4c-0.7,0-1.4,0.1-2.1,0.4
						c-0.6,0.2-1.2,0.6-1.7,1c-0.5,0.4-0.9,1-1.1,1.6c-0.6,1.5-0.6,3.2,0,4.7c0.3,0.6,0.7,1.1,1.1,1.6c0.5,0.5,1.1,0.8,1.7,1
						c0.7,0.2,1.4,0.4,2.1,0.4c0.8,0,1.5-0.2,2.3-0.5c0.6-0.2,1.1-0.6,1.5-1c0.2-0.2,0.2-0.4,0-0.6l-1.3-1l0,0l-0.1-0.1
						c-0.2-0.1-0.4-0.1-0.5,0.1c-0.2,0.2-0.4,0.4-0.6,0.5c-0.4,0.2-0.8,0.3-1.2,0.3c-0.5,0-1.1-0.2-1.5-0.5
						c-0.5-0.5-0.7-1.1-0.8-1.7c0-0.1,0.1-0.2,0.2-0.2h6.2c0.2,0,0.4-0.2,0.4-0.5V19c0-0.7-0.1-1.4-0.3-2.1
						C98.5,16.4,98.2,15.8,97.8,15.3 M95.8,17.9h-3.4c-0.1,0-0.2-0.1-0.2-0.2c0-0.2,0.1-0.3,0.1-0.5c0.1-0.2,0.2-0.4,0.4-0.6
						c0.4-0.4,1-0.6,1.5-0.6c0.5,0,1,0.2,1.3,0.5c0.3,0.3,0.5,0.7,0.5,1.1C96.1,17.8,96,17.9,95.8,17.9"/>
					<path class="st3" d="M87.3,15.5c-0.4-0.5-0.8-0.9-1.4-1.1c-0.6-0.3-1.2-0.4-1.8-0.4c-0.6,0-1.2,0.1-1.7,0.3
						c-0.4,0.1-0.7,0.3-1,0.6l0,0c0,0,0,0,0,0l-0.1,0.1l0,0l0,0c0,0-0.1,0-0.1,0c-0.1,0-0.2-0.1-0.2-0.2v-5c0-0.2-0.2-0.4-0.4-0.4
						h-2.1c-0.2,0-0.4,0.2-0.4,0.4v14.1c0,0.2,0.2,0.4,0.4,0.4h1.9c0.2,0,0.4-0.2,0.4-0.4v-0.5c0-0.1,0.1-0.1,0.2-0.1
						c0,0,0.1,0,0.1,0l0,0l0.1,0.1c0.1,0.1,0.1,0.1,0.2,0.2c0.2,0.2,0.4,0.4,0.7,0.5c0.3,0.1,0.5,0.3,0.8,0.4c0.3,0.1,0.6,0.1,1,0.1
						c0.7,0,1.3-0.1,1.9-0.4c0.6-0.2,1.1-0.6,1.5-1c0.4-0.5,0.8-1,1-1.6c0.4-1.5,0.4-3,0-4.5C88,16.6,87.7,16,87.3,15.5 M84.9,21.3
						c-1,0.9-2.5,0.9-3.5,0c-0.4-0.4-0.6-1.4-0.6-2.1c0-0.7,0.2-1.6,0.6-2c1-0.9,2.5-0.9,3.5,0c0.4,0.4,0.6,1.3,0.6,2
						C85.5,20,85.3,20.9,84.9,21.3"/>
					<path class="st3" d="M148.5,9.4h-2.1c-0.2,0-0.4,0.2-0.4,0.4v5c0,0.1-0.1,0.1-0.2,0.1c0,0-0.1,0-0.1-0.1l0,0l0,0c0,0,0,0,0,0
						l0,0c-0.3-0.3-0.6-0.5-1-0.6c-0.6-0.2-1.1-0.3-1.7-0.3c-0.6,0-1.3,0.1-1.9,0.4c-0.5,0.3-1,0.7-1.4,1.1c-0.4,0.5-0.7,1-0.9,1.6
						c-0.4,1.5-0.4,3,0,4.5c0.2,0.6,0.5,1.1,1,1.6c0.4,0.4,0.9,0.8,1.5,1c0.6,0.3,1.3,0.4,1.9,0.4c0.3,0,0.6,0,1-0.1
						c0.3-0.1,0.6-0.2,0.9-0.4c0.2-0.1,0.5-0.3,0.7-0.5l0.2-0.2l0,0c0.1-0.1,0.2-0.1,0.2,0c0,0,0,0,0,0c0,0,0,0.1,0,0.1v0.4
						c0,0.2,0.2,0.4,0.4,0.4h1.9c0.2,0,0.4-0.2,0.4-0.5v-14l0,0C148.9,9.6,148.7,9.4,148.5,9.4 M145.5,21.4c-1,0.9-2.5,0.9-3.5,0
						c-0.4-0.4-0.6-1.4-0.6-2.1c0-0.7,0.2-1.6,0.6-2c1-0.9,2.5-0.9,3.5,0c0.4,0.4,0.6,1.3,0.6,2C146.2,20,146,20.9,145.5,21.4"/>
					<path class="st3" d="M66.5,9.5c-0.9,0-1.7,0.8-1.7,1.7s0.8,1.7,1.7,1.7c0.9,0,1.7-0.8,1.7-1.7c0-0.5-0.2-0.9-0.5-1.2
						C67.4,9.6,67,9.5,66.5,9.5"/>
					<path class="st3" d="M67.5,14.2h-2.1c-0.2,0-0.4,0.2-0.5,0.4V24c0,0.2,0.2,0.4,0.4,0.4h2.1c0.2,0,0.4-0.2,0.4-0.4v-9.3
						C68,14.4,67.8,14.2,67.5,14.2"/>
					<path class="st3" d="M137.1,14.2h-1.9c-0.2,0-0.4,0.2-0.4,0.4v0.5c0,0.1-0.1,0.1-0.2,0.1c0,0-0.1,0-0.1,0l0,0
						c-0.1-0.1-0.1-0.1-0.2-0.2c-0.2-0.2-0.5-0.4-0.7-0.5c-0.3-0.2-0.6-0.3-0.9-0.4c-0.4-0.1-0.8-0.1-1.2-0.1
						c-0.6,0-1.3,0.1-1.8,0.4c-0.5,0.3-1,0.7-1.4,1.1c-0.4,0.5-0.7,1-0.9,1.6c-0.2,0.7-0.3,1.5-0.3,2.2c0,0.8,0.1,1.5,0.3,2.2
						c0.2,0.6,0.5,1.1,1,1.6c0.4,0.4,0.9,0.8,1.5,1c0.6,0.3,1.3,0.4,1.9,0.4c0.5,0,1-0.1,1.4-0.3c0.3-0.1,0.7-0.3,0.9-0.6l0,0
						c0,0,0,0,0,0c0,0,0,0,0.1-0.1l0,0c0,0,0.1,0,0.1,0c0.1,0,0.2,0.1,0.2,0.1c0,0,0,0,0,0v0.5c0,0.6-0.2,1.2-0.6,1.7
						c-0.4,0.4-1.1,0.7-2,0.7c-0.6,0-1.1-0.1-1.7-0.3c-0.4-0.2-0.8-0.4-1.1-0.6c-0.2-0.1-0.5-0.1-0.6,0.1l-1.2,1.7
						c-0.1,0.2-0.1,0.5,0.1,0.6c0.6,0.4,1.2,0.7,1.9,0.9c0.8,0.2,1.7,0.3,2.5,0.3c1.9,0,3.3-0.5,4.2-1.4c0.9-0.9,1.4-2.3,1.4-4.1
						v-8.9C137.5,14.4,137.3,14.2,137.1,14.2 M134.6,20.4c-0.1,0.3-0.3,0.5-0.5,0.7c-0.2,0.2-0.5,0.4-0.8,0.5
						c-0.6,0.3-1.3,0.3-1.9,0c-0.3-0.1-0.5-0.3-0.7-0.5c-0.2-0.2-0.4-0.5-0.5-0.7c-0.1-0.4-0.2-0.7-0.2-1.1c0-0.4,0.1-0.8,0.2-1.3
						c0.1-0.3,0.3-0.5,0.5-0.7c0.2-0.2,0.5-0.4,0.7-0.5c0.6-0.3,1.3-0.3,1.9,0c0.3,0.1,0.5,0.3,0.8,0.5c0.2,0.2,0.4,0.5,0.5,0.7
						c0.1,0.4,0.2,0.8,0.2,1.3C134.8,19.7,134.7,20.1,134.6,20.4"/>
					<path class="st3" d="M52.7,15.3c-0.3-0.4-0.6-0.7-1.1-1c-0.6-0.3-1.2-0.4-1.8-0.3c-0.3,0-0.7,0-1,0.1c-0.3,0.1-0.5,0.2-0.8,0.4
						c-0.2,0.1-0.4,0.3-0.6,0.5c0,0,0,0,0,0l-0.1,0.1l0,0l0,0c-0.1,0.1-0.2,0-0.2,0c0,0,0,0,0-0.1V9.9c0-0.2-0.2-0.4-0.4-0.4h-2.1
						c-0.2,0-0.4,0.2-0.4,0.4v14.1c0,0.2,0.2,0.5,0.4,0.5h2c0.2,0,0.5-0.2,0.5-0.5l0,0V19c0-0.3,0-0.6,0.1-0.9
						c0-0.3,0.1-0.5,0.2-0.8c0.1-0.2,0.3-0.4,0.5-0.6c0.3-0.1,0.6-0.2,0.9-0.2c0.6-0.1,1.1,0.3,1.3,0.9c0.1,0.3,0.2,0.5,0.2,0.8
						c0,0.3,0,0.6,0,0.9v4.8c0,0.2,0.2,0.4,0.4,0.5h2.1c0.3,0,0.5-0.2,0.5-0.5l0,0v-5.4c0-0.6,0-1.2-0.1-1.8
						C53.2,16.2,53,15.7,52.7,15.3"/>
					<path class="st3" d="M126.5,14H126c-0.6,0-1.2,0.1-1.6,0.4c-0.3,0.2-0.6,0.5-0.8,0.8l0,0l0,0.1l0,0l0,0c0,0-0.1,0.1-0.1,0
						c-0.1,0-0.1-0.1-0.2-0.1v-0.6c0-0.2-0.2-0.4-0.4-0.4h-2.1c-0.2,0-0.4,0.2-0.5,0.4V24c0,0.2,0.2,0.4,0.4,0.4h2.1
						c0.2,0,0.4-0.2,0.4-0.4v-4.1c0-0.4,0-0.9,0.1-1.3c0-0.4,0.2-0.7,0.3-1c0.2-0.3,0.5-0.5,0.8-0.7c0.3-0.1,0.7-0.2,1.1-0.2h1.1
						c0.2,0,0.4-0.2,0.4-0.4v-1.8C127,14.2,126.8,14,126.5,14"/>
					<path class="st3" d="M75.8,18.8c-0.4-0.2-0.8-0.4-1.2-0.5l-1.2-0.3c-0.3-0.1-0.6-0.2-0.9-0.3c-0.2-0.1-0.4-0.3-0.4-0.6
						c0-0.3,0.1-0.5,0.4-0.6c0.2-0.1,0.5-0.2,0.7-0.2c0.5,0,1,0.2,1.4,0.5c0.2,0.1,0.4,0.1,0.6,0l1.2-1.3c0.1-0.2,0.1-0.4,0-0.6
						c-0.4-0.4-0.8-0.6-1.3-0.8c-0.6-0.2-1.3-0.3-1.9-0.3c-0.5,0-1,0.1-1.5,0.2c-0.5,0.1-0.9,0.3-1.3,0.6c-0.4,0.3-0.7,0.6-0.9,1.1
						c-0.2,0.5-0.4,1-0.3,1.5c0,0.5,0.1,1.1,0.4,1.5c0.2,0.4,0.5,0.7,0.9,0.9c0.4,0.2,0.8,0.4,1.2,0.5l1.2,0.3
						c0.3,0.1,0.6,0.2,0.9,0.3c0.2,0.1,0.4,0.3,0.4,0.6c0,0.3-0.2,0.5-0.4,0.6c-0.3,0.1-0.6,0.2-0.9,0.2c-0.4,0-0.8-0.1-1.2-0.3
						c-0.2-0.1-0.4-0.3-0.6-0.5c-0.2-0.1-0.4-0.1-0.6,0L69.2,23c-0.1,0.2-0.1,0.5,0.1,0.6l0,0c0.4,0.4,0.9,0.6,1.4,0.8
						c0.7,0.2,1.3,0.3,2,0.3c0.5,0,1-0.1,1.6-0.2c0.5-0.1,1-0.3,1.4-0.5c0.4-0.3,0.8-0.6,1-1c0.3-0.5,0.4-1.1,0.4-1.6
						c0-0.5-0.1-1.1-0.4-1.5C76.5,19.4,76.2,19.1,75.8,18.8"/>
					<path class="st3" d="M63.2,14.2h-2.1c-0.2,0-0.4,0.2-0.4,0.4v4.9c0,0.3,0,0.6-0.1,0.9c0,0.3-0.1,0.5-0.2,0.8
						c-0.1,0.2-0.3,0.4-0.5,0.6C59.6,21.9,59.3,22,59,22c-0.3,0-0.6-0.1-0.9-0.2c-0.2-0.2-0.4-0.4-0.5-0.6c-0.1-0.3-0.2-0.5-0.2-0.8
						c0-0.3,0-0.6,0-0.9v-4.8c0-0.2-0.2-0.4-0.5-0.4h-2.1c-0.3,0-0.5,0.2-0.5,0.4c0,0,0,0,0,0v5.4c0,0.6,0,1.2,0.1,1.8
						c0.1,0.5,0.2,1,0.5,1.4c0.3,0.4,0.6,0.7,1.1,1c0.6,0.3,1.2,0.4,1.8,0.3c0.3,0,0.7,0,1-0.1c0.3-0.1,0.6-0.2,0.8-0.4
						c0.2-0.1,0.4-0.3,0.6-0.5c0.1-0.1,0.1-0.1,0.2-0.2c0,0,0.1,0,0.1,0c0.1,0,0.2,0.1,0.2,0.2v0.4c0,0.2,0.2,0.4,0.4,0.4h1.9
						c0.2,0,0.5-0.2,0.5-0.5v-9.3C63.7,14.4,63.5,14.2,63.2,14.2"/>
					<path class="st3" d="M107.7,22h-4.5c-0.1,0-0.1-0.1-0.1-0.2c0,0,0-0.1,0-0.1l0.1-0.1l0,0l4.3-4.1l0.2-0.2
						c0.2-0.2,0.3-0.4,0.3-0.7v-2c0-0.2-0.2-0.4-0.5-0.5h-7.4c-0.2,0-0.4,0.2-0.5,0.4v1.5c0,0.2,0.2,0.4,0.5,0.4h4.1
						c0.1,0,0.1,0.1,0.1,0.2c0,0,0,0.1,0,0.1l-3.8,3.7l0,0l-0.6,0.5l-0.1,0.1c-0.2,0.2-0.2,0.4-0.2,0.6v2.2c0,0.2,0.2,0.4,0.4,0.4
						h7.6c0.2,0,0.4-0.2,0.4-0.5l0,0v-1.5l0,0C108.2,22.2,108,22,107.7,22"/>
					<path class="st3" d="M164.3,9.3h-0.7c-0.2,0-0.4,0.2-0.4,0.5v14.2c0,0.2,0.2,0.4,0.4,0.4h0.7c0.2,0,0.4-0.2,0.4-0.5V9.7
						C164.7,9.5,164.5,9.3,164.3,9.3"/>
					<path class="st3" d="M160.9,15c-0.3-0.3-0.7-0.6-1.1-0.8c-0.5-0.2-1-0.3-1.6-0.3c-0.7,0-1.4,0.2-2,0.6
						c-0.3,0.2-0.5,0.3-0.7,0.6l-0.1,0.2l0,0l0,0.1c0,0,0,0,0,0l0,0c0,0-0.1,0.1-0.1,0c-0.1,0-0.1-0.1-0.2-0.1v-0.6
						c0-0.2-0.2-0.4-0.4-0.4H154c-0.2,0-0.4,0.2-0.4,0.4v9.3c0,0.2,0.2,0.4,0.4,0.4h0.7c0.2,0,0.4-0.2,0.4-0.5l0,0V19
						c0-0.5,0.1-1,0.2-1.5c0.1-0.4,0.3-0.8,0.5-1.1c0.2-0.3,0.5-0.6,0.9-0.7c0.4-0.2,0.9-0.3,1.3-0.2c0.7,0,1.3,0.2,1.6,0.7
						c0.4,0.5,0.6,1.2,0.5,1.9v6c0,0.2,0.2,0.4,0.4,0.5h0.7c0.2,0,0.4-0.2,0.4-0.4v-6.1c0-0.5-0.1-1-0.2-1.5
						C161.4,15.8,161.2,15.4,160.9,15"/>
					<path class="st3" d="M151.2,22.3c-0.3,0-0.6,0.1-0.8,0.3c-0.4,0.4-0.4,1.1,0,1.5s1.1,0.4,1.5,0l0,0l0,0c0.4-0.4,0.4-1.1,0-1.5
						C151.7,22.5,151.5,22.3,151.2,22.3"/>
				</g>
			</g>
		</g>
		<g id="TakeawayCOM_Full_Colour_6_">
			<path id="House_6_" class="st3" d="M13,0.2c0.5-0.4,1.2-0.4,1.8,0c1.4,0.9,2.7,1.8,3.9,2.8c0,0,0.3,0.2,0.4-0.2
				c0,0-0.1-1.2,0.1-1.6c0.1-0.3,0.4-0.5,0.7-0.5c0,0,1.6,0.1,2.5,0.2c0.4,0.1,0.8,0.4,0.8,0.9c0,0,0.6,4.2,0.8,5.7
				c0,0,0.1,0.8,1.2,2.1c0,0,2.3,3.2,2.5,3.8c0,0,0.5,1.1-0.6,1.2c0,0-2.1,0.2-2.3,0.2c-0.3,0-0.5,0.3-0.5,0.6c0,0,0,0,0,0
				c0,0-0.1,7.3-0.6,10.9c0,0-0.1,1.4-0.9,1.4c0,0-2.1-0.1-2.6-0.1c0,0-0.2,0-0.2-0.3c0,0,1.1-11.5,0.3-17.3c0,0,0-0.7-0.6-0.9
				c0,0-0.5-0.2-1,0.5c0,0-3.4,4.3-3.4,10.3c0,0-0.1,1.8,0.2,2.3c0,0,0.2,0.3,1.1,0.4l1.1,0.1c0,0,0.2,0,0.2,0.3c0,0-0.2,3.4-0.3,4
				c0,0.1,0,0.3-0.1,0.4c0,0,0,0.1-0.4,0.1c0,0-4.9,0-5.5,0c0,0-0.2,0-0.3-0.1c0-0.1-0.3-4.3-0.3-4.9c0-0.1,0.1-0.2,0.2-0.3
				c0.8-0.5,1.3-1.3,1.4-2.2c0,0,0.1-0.3,0-1.9c0,0,0.2-6.4,0.2-7.5c0,0,0-0.3-0.4-0.4c-0.2,0-0.4,0.1-0.5,0.3v0
				c0,0-0.3,4.2-0.2,5.9c0,0,0.1,1.1-0.7,1.1c0,0-0.7,0.1-0.8-0.8c0,0,0.1-4.1,0.2-6.2c0-0.2-0.2-0.4-0.4-0.4
				c-0.2,0-0.5,0.1-0.5,0.4c0,0,0,0,0,0c0,0-0.3,4-0.2,6c0,0,0.1,1-0.7,1c0,0-0.7,0.1-0.7-0.8c0,0,0.2-5.7,0.2-6.1
				c0-0.3-0.2-0.5-0.4-0.5c0,0,0,0,0,0h0c-0.2,0-0.5,0.1-0.5,0.4c0,0,0,0,0,0c0,0,0,0,0,0c0,0-0.3,6.8-0.2,8.8c0,0,0,2,1.5,2.9
				c0,0,0.2,0.1,0.2,0.3c0,0,0.2,3.6,0.3,4.7c0,0,0.1,0.3-0.2,0.3L4.9,28c0,0-0.6,0-0.8-0.7C4,26.5,3.3,20.5,3.4,15.7
				c0-0.3-0.2-0.6-0.5-0.6c0,0-1.9-0.2-2.4-0.3c-0.4-0.1-0.7-0.6-0.6-1c0,0,0,0,0,0c0-0.1,0-0.1,0.1-0.2C0,13.6,4.2,5.6,13,0.2z"/>
		</g>
	</g>
</g>
</svg>
